<svg width="24" height="24" viewBox="0 0 198.83008 198.83008" version="1.1"
  xmlns:xlink="http://www.w3.org/1999/xlink"
  xmlns="http://www.w3.org/2000/svg">
  <defs>
    <linearGradient gradientUnits="userSpaceOnUse" x1="91.741455" y1="0" x2="159.83568" y2="75.23709" id="gradient_1s">
      <stop offset="0%" stop-color="#4285EB" />
      <stop offset="100%" stop-color="#2EC7FF" />
    </linearGradient>
    <linearGradient gradientUnits="userSpaceOnUse" x1="102.88267" y1="0" x2="79.83556" y2="215.50969" id="gradient_2s">
      <stop offset="0%" stop-color="#29CDFF" />
      <stop offset="37.86007%" stop-color="#148EFF" />
      <stop offset="100%" stop-color="#0A60FF" />
    </linearGradient>
    <linearGradient gradientUnits="userSpaceOnUse" x1="34.291306" y1="-10.046862" x2="8.228487" y2="90.903435" id="gradient_3s">
      <stop offset="0%" stop-color="#FA816E" />
      <stop offset="41.472607%" stop-color="#F74A5C" />
      <stop offset="100%" stop-color="#F51D2C" />
    </linearGradient>
    <linearGradient gradientUnits="userSpaceOnUse" x1="32.156673" y1="-16.832235" x2="14.367841" y2="54.208775" id="gradient_4s">
      <stop offset="0%" stop-color="#FA8E7D" />
      <stop offset="51.263515%" stop-color="#F74A5C" />
      <stop offset="100%" stop-color="#F51D2C" />
    </linearGradient>
    <path d="M0 0L198.83 0L198.83 198.83L0 198.83L0 0Z" id="path_1s" />
    <clipPath id="mask_1s">
      <use xlink:href="#path_1s" />
    </clipPath>
  </defs>
  <g id="Grupoc-2s">
    <path d="M0 0L198.83 0L198.83 198.83L0 198.83L0 0Z" id="Fondo" fill="#FFFFFF" fill-opacity="0" fill-rule="evenodd" stroke="none" />
    <g clip-path="url(#mask_1s)">
      <g id="Grupoc" transform="translate(0.00048828125 0.0625)">
        <path d="M90.9325 3.53729L3.5244 90.8735C-1.1748 95.5689 -1.1748 103.153 3.5244 107.848L90.9325 195.184C95.6317 199.88 103.222 199.88 107.921 195.184L144.57 158.565C148.778 154.36 148.778 147.543 144.57 143.338C140.361 139.133 133.538 139.133 129.33 143.338L101.546 171.098C100.377 172.267 98.6016 172.267 97.432 171.098L27.6303 101.354C26.4607 100.185 26.4607 98.4115 27.6303 97.2429L97.432 27.4986C98.6016 26.33 100.377 26.33 101.546 27.4986L129.33 55.2591C133.538 59.4641 140.361 59.4641 144.57 55.2591C148.778 51.0541 148.778 44.2364 144.57 40.0314L107.925 3.41651C103.206 -1.17722 95.6137 -1.14004 90.9325 3.53729L90.9325 3.53729Z" id="Shape" fill="url(#gradient_1s)" stroke="none" />
        <path d="M90.9325 3.53729L3.5244 90.8735C-1.1748 95.5689 -1.1748 103.153 3.5244 107.848L90.9325 195.184C95.6317 199.88 103.222 199.88 107.921 195.184L144.57 158.565C148.778 154.36 148.778 147.543 144.57 143.338C140.361 139.133 133.538 139.133 129.33 143.338L101.546 171.098C100.377 172.267 98.6016 172.267 97.432 171.098L27.6303 101.354C26.4607 100.185 26.4607 98.4115 27.6303 97.2429L97.432 27.4986C100.344 24.9879 105.096 19.9026 112.074 18.7132C117.26 17.8293 122.93 19.7748 129.083 24.5497C124.969 20.4392 117.916 13.3948 107.925 3.41651C103.206 -1.17722 95.6137 -1.14004 90.9325 3.53729L90.9325 3.53729Z" id="Shape#1" fill="url(#gradient_2s)" stroke="none" />
        <path d="M153.03 135.215C157.239 139.42 164.062 139.42 168.27 135.215L195.304 108.203C200.004 103.508 200.004 95.9242 195.305 91.2294L168.035 64.0787C163.817 59.8787 156.991 59.8847 152.78 64.0922C148.572 68.2972 148.572 75.1149 152.78 79.3199L171.199 97.7229C172.368 98.8916 172.368 100.665 171.199 101.834L153.03 119.987C148.822 124.192 148.822 131.01 153.03 135.215L153.03 135.215Z" id="Shape#2" fill="url(#gradient_3s)" stroke="none" />
        <path d="M76.2637 99.7976C76.2637 86.7743 86.8298 76.2168 99.8639 76.2168C112.898 76.2168 123.464 86.7743 123.464 99.7976C123.464 112.821 112.898 123.378 99.8639 123.378C86.8298 123.378 76.2637 112.821 76.2637 99.7976Z" id="Combined-Shape" fill="url(#gradient_4s)" fill-rule="evenodd" stroke="none" />
      </g>
    </g>
  </g>
</svg>