<svg width="24px" height="24px" viewBox="0 0 40 40" version="1.1"
  xmlns:xlink="http://www.w3.org/1999/xlink"
  xmlns="http://www.w3.org/2000/svg">
  <g id="Grupo">
    <path d="M20 20C20 17.2386 22.2386 15 25 15C27.7614 15 30 17.2386 30 20C30 22.7614 27.7614 25 25 25C22.2386 25 20 22.7614 20 20Z" id="Círculo" fill="#28A9FF" fill-rule="evenodd" stroke="none" />
    <path d="M8 0C3.58172 0 0 3.58172 0 8L0 32C0 36.4183 3.58172 40 8 40L32 40C36.4183 40 40 36.4183 40 32L40 8C40 3.58172 36.4183 0 32 0L8 0L8 0ZM19.9998 31.9997C26.6272 31.9997 31.9998 26.6271 31.9998 19.9997C31.9998 13.3723 26.6272 7.99967 19.9998 7.99967C13.3723 7.99967 7.99976 13.3723 7.99976 19.9997C7.99976 26.6271 13.3723 31.9997 19.9998 31.9997L19.9998 31.9997Z" id="Forma" fill="#28A9FF" fill-rule="evenodd" stroke="none" />
  </g>
</svg>