<svg width="24px" height="24px" viewBox="0 0 24 24" version="1.1"
  xmlns:xlink="http://www.w3.org/1999/xlink"
  xmlns="http://www.w3.org/2000/svg">
  <defs>
    <linearGradient gradientUnits="userSpaceOnUse" x1="12" y1="0" x2="12" y2="24" id="gradisent_1">
      <stop offset="0%" stop-color="#7BCBD4" />
      <stop offset="100%" stop-color="#29C6B7" />
    </linearGradient>
  </defs>
  <g id="Grupo">
    <path d="M0 12C0 8.68629 1.17157 5.85786 3.51472 3.51472C5.85786 1.17157 8.68629 0 12 0C15.3137 0 18.1421 1.17157 20.4853 3.51472C22.8284 5.85786 24 8.68629 24 12C24 15.3137 22.8284 18.1421 20.4853 20.4853C18.1421 22.8284 15.3137 24 12 24C8.68629 24 5.85786 22.8284 3.51472 20.4853C1.17157 18.1421 0 15.3137 0 12L0 12Z" id="Rectángulo" fill="url(#gradisent_1)" fill-rule="evenodd" stroke="none" />
    <path d="M6.49651 12.5138L14.6763 4.39035C14.8291 4.23859 15.0751 4.42326 14.9719 4.61232L11.9274 10.1923C11.8594 10.3167 11.9496 10.4685 12.0913 10.4685L17.3526 10.4685C17.5221 10.4685 17.6039 10.6761 17.48 10.7918L8.2603 19.3965C8.09499 19.5508 7.84893 19.3334 7.98165 19.1504L12.3461 13.1295C12.4355 13.0061 12.3474 12.8331 12.1949 12.8331L6.62812 12.8331C6.46142 12.8331 6.37823 12.6313 6.49651 12.5138L6.49651 12.5138Z" id="Forma" fill="#FFFFFF" stroke="none" />
  </g>
</svg>