<?xml version="1.0" encoding="utf-8"?>
<svg width="48px" height="48px" viewBox="0 0 48 48" version="1.1"
    xmlns:xlink="http://www.w3.org/1999/xlink"
    xmlns="http://www.w3.org/2000/svg">
    <defs>
        <linearGradient gradientUnits="userSpaceOnUse" x1="2.840028" y1="11.432661" x2="10.561498" y2="20.94222" id="gradient_1">
            <stop offset="9.39%" stop-color="#58D09E" />
            <stop offset="98.83%" stop-color="#58D09E" stop-opacity="0" />
        </linearGradient>
        <linearGradient gradientUnits="userSpaceOnUse" x1="1.8584737" y1="8.5664215" x2="25.736723" y2="11.343951" id="gradient_2">
            <stop offset="0%" stop-color="#58D09E" />
            <stop offset="100%" stop-color="#1B1E2E" />
        </linearGradient>
        <path d="M0 0L48 0L48 48L0 48L0 0Z" id="path_1" />
        <clipPath id="mask_1">
            <use xlink:href="#path_1" />
        </clipPath>
    </defs>
    <g id="Grupo">
        <path d="M0 0L48 0L48 48L0 48L0 0Z" id="Fondo" fill="#FFFFFF" fill-opacity="0" fill-rule="evenodd" stroke="none" />
        <g clip-path="url(#mask_1)">
            <path d="M0.854023 30.3588C0.288116 28.2979 5.96046e-08 26.1573 5.96046e-08 24.0013C5.96046e-08 14.1592 6.18126 5.16 15.3824 1.61121L16.5888 4.73343C8.66867 7.78884 3.34915 15.5314 3.34915 24.0013C3.34915 25.8592 3.59608 27.6991 4.08225 29.4722L0.854023 30.3588L0.854023 30.3588Z" id="Forma" fill="#58D09E" stroke="none" />
            <path d="M15.2217 1.68789C17.2121 0.909656 19.3109 0.399366 21.4551 0.174003C31.2433 -0.854777 40.8393 4.35195 45.3304 13.1317L42.3514 14.6579C38.4849 7.10052 30.2287 2.61946 21.8052 3.50481C19.9574 3.69901 18.1534 4.13691 16.4409 4.80576L15.2217 1.68789L15.2217 1.68789Z" id="Forma" fill="#58D09E" stroke="none" />
            <path d="M34.9856 41.4513C41.5214 37.2853 45.1618 29.8917 44.4854 22.1606C44.2457 19.4212 43.4854 16.8049 42.2294 14.3895L45.1972 12.8414C46.6578 15.6495 47.5426 18.6861 47.821 21.8687C48.6068 30.8504 44.3795 39.4365 36.7857 44.2763L34.9856 41.4513L34.9856 41.4513Z" id="Forma" fill="url(#gradient_1)" stroke="none" />
            <path d="M16.8769 19.0494C18.8189 19.0494 20.4009 20.085 21.2138 21.8915L21.2781 22.0329L24.5397 20.9253L24.4703 20.7583C23.2073 17.6823 20.298 15.7704 16.8769 15.7704C14.4717 15.7704 12.5168 16.5414 10.9014 18.1243C9.29622 19.697 8.4834 21.6757 8.4834 24.0064C8.4834 26.3166 9.29622 28.285 10.9014 29.8577C12.5168 31.4407 14.4717 32.2116 16.8769 32.2116C20.298 32.2116 23.2073 30.2997 24.4703 27.2263L24.5397 27.0593L21.2729 25.9491L21.2112 26.0956C20.4832 27.8713 18.8627 28.9326 16.8769 28.9326C15.5238 28.9326 14.3817 28.4598 13.4762 27.5295C12.5605 26.5864 12.0975 25.4018 12.0975 24.009C12.0975 22.6059 12.5502 21.4444 13.4762 20.4576C14.3791 19.5223 15.5238 19.0494 16.8769 19.0494L16.8769 19.0494Z" id="Forma" fill="#1B1E2E" stroke="none" />
            <path d="M37.3061 16.0737L32.658 27.8353L27.979 16.0737L24.1514 16.0737L30.7133 32.1268L26.0446 43.449L29.3912 44.1146L40.9228 16.0737L37.3061 16.0737Z" id="Polígono" fill="#1B1E2E" fill-rule="evenodd" stroke="none" />
            <path d="M26.6434 41.9894L25.828 43.963C25.6659 44.3536 25.2955 44.6182 24.8788 44.6362C24.6036 44.6465 24.3258 44.6542 24.0454 44.6542C14.4481 44.6491 5.95693 37.883 3.85278 28.56L0.585938 29.2975C1.76663 34.5269 4.72994 39.2732 8.93051 42.6653C13.18 46.0958 18.5329 47.9897 24.0094 48C24.0171 48 24.0582 48 24.0582 48C24.3798 48 24.6987 47.9923 25.0177 47.9795C26.736 47.9075 28.2717 46.8308 28.9276 45.235L29.9925 42.655L26.6434 41.9894L26.6434 41.9894Z" id="Forma" fill="url(#gradient_2)" stroke="none" />
        </g>
    </g>
</svg>