<svg width="24px" height="24px" viewBox="0 0 24 24" version="1.1"
  xmlnsXlink="http://www.w3.org/1999/xlink"
  xmlns="http://www.w3.org/2000/svg">
  <defs>
    <path d="M0 0L24 0L24 24L0 24L0 0Z" id="path_1" />
    <clipPath id="mask_1">
      <use xlinkHref="#path_1" />
    </clipPath>
  </defs>
  <g id="docusaurus_keytar-2">
    <path d="M0 0L24 0L24 24L0 24L0 0Z" id="Background" fill="none" fillRule="evenodd" stroke="none" />
    <g clipPath="url(#mask_1)">
      <path d="M11.8801 6.24011L21.9601 6.24011L21.9601 10.3201L11.8801 10.3201L11.8801 6.24011Z" id="Shape" fill="#FFFFFF" fillRule="evenodd" stroke="none" />
      <path d="M2.76011 19.5601C1.87235 19.5601 1.09895 19.0769 0.683748 18.3601C0.471766 18.7245 0.360098 19.1385 0.360107 19.5601C0.360108 20.8856 1.43459 21.9601 2.76011 21.9601L5.16011 21.9601L5.16011 19.5601L2.76011 19.5601L2.76011 19.5601Z" id="Shape" fill="#3ECC5F" fillRule="evenodd" stroke="none" />
      <path d="M13.5576 6.88523L21.96 6.36011L21.96 5.16011C21.96 3.83459 20.8855 2.76011 19.56 2.76011L8.75999 2.76011L8.45999 2.24051C8.32655 2.00951 7.99331 2.00951 7.85999 2.24051L7.55999 2.76011L7.25999 2.24051C7.12667 2.00951 6.79331 2.00951 6.65999 2.24051L6.35999 2.76011L6.05999 2.24051C5.92667 2.00951 5.59331 2.00951 5.45999 2.24051L5.15999 2.76011C5.15735 2.76011 5.15495 2.76047 5.15219 2.76047L4.65515 2.26355C4.46675 2.07503 4.14491 2.16119 4.07579 2.41883L3.91151 3.03131L3.28847 2.86427C3.03071 2.79527 2.79515 3.03095 2.86427 3.28859L3.03107 3.91175L2.41883 4.07579C2.16107 4.14491 2.07479 4.46687 2.26331 4.65539L2.76035 5.15243C2.76035 5.15495 2.75999 5.15747 2.75999 5.16011L2.24039 5.46011C2.00939 5.59343 2.00939 5.92679 2.24039 6.06011L2.75999 6.36011L2.24039 6.66011C2.00939 6.79343 2.00939 7.12679 2.24039 7.26011L2.75999 7.56011L2.24039 7.86011C2.00939 7.99343 2.00939 8.32679 2.24039 8.46011L2.75999 8.76011L2.24039 9.06011C2.00939 9.19343 2.00939 9.52679 2.24039 9.66011L2.75999 9.96011L2.24039 10.2601C2.00939 10.3934 2.00939 10.7268 2.24039 10.8601L2.75999 11.1601L2.24039 11.4601C2.00939 11.5934 2.00939 11.9268 2.24039 12.0601L2.75999 12.3601L2.24039 12.6601C2.00939 12.7934 2.00939 13.1268 2.24039 13.2601L2.75999 13.5601L2.24039 13.8601C2.00939 13.9934 2.00939 14.3268 2.24039 14.4601L2.75999 14.7601L2.24039 15.0601C2.00939 15.1934 2.00939 15.5268 2.24039 15.6601L2.75999 15.9601L2.24039 16.2601C2.00939 16.3934 2.00939 16.7268 2.24039 16.8601L2.75999 17.1601L2.24039 17.4601C2.00939 17.5934 2.00939 17.9268 2.24039 18.0601L2.75999 18.3601L2.24039 18.6601C2.00939 18.7934 2.00939 19.1268 2.24039 19.2601L2.75999 19.5601C2.75999 20.8856 3.83447 21.9601 5.15999 21.9601L19.56 21.9601C20.8855 21.9601 21.96 20.8856 21.96 19.5601L21.96 9.96011L13.5576 9.43499C12.8844 9.39285 12.36 8.8346 12.36 8.16011C12.36 7.48559 12.8844 6.92735 13.5576 6.88523" id="Shape" fill="#3ECC5F" fillRule="evenodd" stroke="none" />
      <path d="M17.1602 21.96L20.7602 21.96L20.7602 17.16L17.1602 17.16L17.1602 21.96Z" id="Shape" fill="#3ECC5F" fillRule="evenodd" stroke="none" />
      <path d="M23.1601 18.9601C23.1338 18.9601 23.1088 18.9645 23.0834 18.9677C23.0789 18.9497 23.0745 18.9316 23.0695 18.9136C23.3332 18.8034 23.4825 18.5225 23.4264 18.2422C23.3703 17.962 23.1243 17.7603 22.8385 17.7601C22.7075 17.7605 22.5803 17.8042 22.4766 17.8844C22.4633 17.8708 22.4499 17.8574 22.4364 17.8441C22.5148 17.741 22.5574 17.6151 22.5577 17.4856C22.5575 17.2006 22.3569 16.9551 22.0777 16.8981C21.7984 16.8411 21.5177 16.9884 21.4058 17.2505C21.3881 17.2455 21.3702 17.2413 21.3524 17.2367C21.3557 17.2114 21.3601 17.1863 21.3601 17.1601C21.3601 16.8287 21.0915 16.5601 20.7601 16.5601C20.4287 16.5601 20.1601 16.8287 20.1601 17.1601C20.1601 17.1863 20.1645 17.2114 20.1678 17.2367C20.15 17.2413 20.1321 17.2455 20.1144 17.2505C20.0029 16.9879 19.7219 16.8401 19.4423 16.8971C19.1628 16.9542 18.9621 17.2003 18.9625 17.4856C18.9625 17.6206 19.0086 17.7437 19.0838 17.8441C18.6378 18.2799 18.3601 18.8872 18.3601 19.5601C18.3601 20.8856 19.4346 21.9601 20.7601 21.9601C21.8808 21.9601 22.8193 21.1909 23.0834 20.1524C23.1087 20.1556 23.1338 20.1601 23.1601 20.1601C23.4915 20.1601 23.7601 19.8914 23.7601 19.5601C23.7601 19.2287 23.4915 18.9601 23.1601 18.9601" id="Shape" fill="#44D860" fillRule="evenodd" stroke="none" />
      <path d="M18.3601 14.7601L21.9601 14.7601L21.9601 12.3601L18.3601 12.3601L18.3601 14.7601Z" id="Shape" fill="#3ECC5F" fillRule="evenodd" stroke="none" />
      <path d="M23.16 13.8601C23.3257 13.8601 23.46 13.7258 23.46 13.5601C23.46 13.3944 23.3257 13.2601 23.16 13.2601C23.1469 13.2601 23.1343 13.2624 23.1217 13.264C23.1193 13.255 23.1173 13.246 23.1148 13.237C23.2464 13.1817 23.3209 13.0413 23.2929 12.9013C23.2648 12.7613 23.142 12.6604 22.9992 12.6601C22.9309 12.6601 22.8687 12.6838 22.8183 12.7223C22.8117 12.7154 22.8049 12.7087 22.7981 12.7021C22.8358 12.6521 22.8588 12.5904 22.8588 12.5228C22.8588 12.3804 22.7585 12.2575 22.6189 12.229C22.4792 12.2005 22.3388 12.2741 22.2828 12.4053C22.1778 12.3756 22.0692 12.3604 21.96 12.3601C21.2974 12.3601 20.76 12.8975 20.76 13.5601C20.76 14.2228 21.2974 14.7601 21.96 14.7601C22.0721 14.7601 22.18 14.7436 22.2828 14.7149C22.3387 14.846 22.4791 14.9197 22.6188 14.8912C22.7584 14.8628 22.8588 14.7399 22.8588 14.5974C22.8588 14.5298 22.8358 14.4682 22.7981 14.4181C22.8049 14.4115 22.8117 14.4048 22.8183 14.398C22.8687 14.4365 22.9309 14.4601 22.9992 14.4601C23.1422 14.4601 23.2653 14.3592 23.2933 14.219C23.3214 14.0789 23.2467 13.9384 23.1148 13.8833C23.1173 13.8744 23.1193 13.8653 23.1217 13.8563C23.1343 13.8578 23.1469 13.8601 23.16 13.8601" id="Shape" fill="#44D860" fillRule="evenodd" stroke="none" />
      <path d="M7.56011 6.66011C7.39442 6.66011 7.26011 6.52579 7.26011 6.36011C7.26011 5.86379 6.85643 5.46011 6.36011 5.46011C5.86379 5.46011 5.46011 5.86379 5.46011 6.36011C5.46011 6.46729 5.40293 6.56632 5.31011 6.61991C5.21729 6.6735 5.10293 6.6735 5.01011 6.61991C4.91729 6.56632 4.86011 6.46729 4.86011 6.36011C4.86011 5.53295 5.53295 4.86011 6.36011 4.86011C7.18727 4.86011 7.86011 5.53295 7.86011 6.36011C7.86011 6.52579 7.72579 6.66011 7.56011 6.66011" id="Shape" fill="#000000" fillRule="evenodd" stroke="none" />
      <path d="M12.3601 21.96L19.5601 21.96C20.8856 21.96 21.9601 20.8856 21.9601 19.56L21.9601 11.16L14.7601 11.16C13.4346 11.16 12.3601 12.2345 12.3601 13.56L12.3601 21.96L12.3601 21.96Z" id="Shape" fill="#FFFF50" fillRule="evenodd" stroke="none" />
      <path d="M20.1624 14.8801L14.1576 14.8801C14.1147 14.8801 14.0751 14.8573 14.0537 14.8201C14.0322 14.783 14.0322 14.7373 14.0537 14.7001C14.0751 14.663 14.1147 14.6401 14.1576 14.6401L20.1624 14.6401C20.2053 14.6401 20.2449 14.663 20.2663 14.7001C20.2878 14.7373 20.2878 14.783 20.2663 14.8201C20.2449 14.8573 20.2053 14.8801 20.1624 14.8801M20.1624 17.2802L14.1576 17.2802C14.1147 17.2802 14.0751 17.2573 14.0537 17.2202C14.0322 17.183 14.0322 17.1373 14.0537 17.1002C14.0751 17.063 14.1147 17.0402 14.1576 17.0402L20.1624 17.0402C20.2053 17.0402 20.2449 17.063 20.2663 17.1002C20.2878 17.1373 20.2878 17.183 20.2663 17.2202C20.2449 17.2573 20.2053 17.2802 20.1624 17.2802M20.1624 19.6801L14.1576 19.6801C14.1147 19.6801 14.0751 19.6572 14.0537 19.6201C14.0322 19.5829 14.0322 19.5372 14.0537 19.5001C14.0751 19.4629 14.1147 19.4401 14.1576 19.4401L20.1624 19.4401C20.2053 19.4401 20.2449 19.4629 20.2663 19.5001C20.2878 19.5372 20.2878 19.5829 20.2663 19.6201C20.2449 19.6572 20.2053 19.6801 20.1624 19.6801M20.1624 13.7024L14.1576 13.7024C14.1147 13.7024 14.0751 13.6795 14.0537 13.6424C14.0322 13.6053 14.0322 13.5595 14.0537 13.5224C14.0751 13.4853 14.1147 13.4624 14.1576 13.4624L20.1624 13.4624C20.2053 13.4624 20.2449 13.4853 20.2663 13.5224C20.2878 13.5595 20.2878 13.6053 20.2663 13.6424C20.2449 13.6795 20.2053 13.7024 20.1624 13.7024M20.1624 16.0801L14.1576 16.0801C14.1147 16.0801 14.0751 16.0572 14.0537 16.0201C14.0322 15.983 14.0322 15.9372 14.0537 15.9001C14.0751 15.863 14.1147 15.8401 14.1576 15.8401L20.1624 15.8401C20.2053 15.8401 20.2449 15.863 20.2663 15.9001C20.2878 15.9372 20.2878 15.983 20.2663 16.0201C20.2449 16.0572 20.2053 16.0801 20.1624 16.0801M20.1624 18.4801L14.1576 18.4801C14.1147 18.4801 14.0751 18.4572 14.0537 18.4201C14.0322 18.383 14.0322 18.3372 14.0537 18.3001C14.0751 18.263 14.1147 18.2401 14.1576 18.2401L20.1624 18.2401C20.2053 18.2401 20.2449 18.263 20.2663 18.3001C20.2878 18.3372 20.2878 18.383 20.2663 18.4201C20.2449 18.4572 20.2053 18.4801 20.1624 18.4801M21.96 7.39344C21.9585 7.39344 21.9573 7.39272 21.9559 7.39284C21.5851 7.40544 21.4097 7.77636 21.2549 8.1036C21.0933 8.4456 20.9684 8.66796 20.7637 8.66124C20.537 8.65308 20.4074 8.397 20.2701 8.12604C20.1125 7.81476 19.9325 7.46172 19.5546 7.47492C19.1891 7.4874 19.013 7.8102 18.8577 8.09496C18.6925 8.39832 18.5801 8.58276 18.3632 8.57424C18.132 8.56584 18.0091 8.35764 17.8669 8.11668C17.7084 7.84836 17.5251 7.54668 17.1546 7.557C16.7953 7.56936 16.6188 7.8432 16.463 8.085C16.2983 8.3406 16.1828 8.49636 15.9632 8.48712C15.7265 8.47872 15.6042 8.30591 15.4627 8.10588C15.3038 7.88111 15.1248 7.62672 14.7553 7.63908C14.4039 7.65108 14.2274 7.87548 14.0718 8.07324C13.9239 8.26092 13.8085 8.40948 13.5643 8.40012C13.498 8.39775 13.4424 8.44954 13.44 8.5158C13.4376 8.58206 13.4894 8.63772 13.5557 8.64012C13.9177 8.65224 14.1011 8.42412 14.2603 8.22168C14.4015 8.04216 14.5235 7.88724 14.7635 7.87908C14.9946 7.86924 15.1029 8.01287 15.2669 8.24448C15.4225 8.46455 15.5991 8.71416 15.9546 8.727C16.3269 8.73948 16.5061 8.4612 16.6647 8.21496C16.8066 7.99488 16.929 7.80492 17.1627 7.79688C17.3779 7.78884 17.495 7.95888 17.6601 8.2386C17.8158 8.50224 17.9921 8.80092 18.3546 8.81412C18.7296 8.82708 18.9107 8.49971 19.0685 8.20992C19.2051 7.95936 19.3341 7.72272 19.5627 7.7148C19.7779 7.70975 19.8901 7.9062 20.0561 8.2344C20.2111 8.54076 20.3869 8.8878 20.7551 8.90112L20.7753 8.90147C21.143 8.90147 21.3175 8.53248 21.4719 8.20619C21.6086 7.91699 21.738 7.6446 21.96 7.63344L21.96 7.39344L21.96 7.39344Z" id="Shape" fill="#000000" fillRule="evenodd" stroke="none" />
      <path d="M9.96021 21.96L14.7602 21.96L14.7602 17.16L9.96021 17.16L9.96021 21.96Z" id="Shape" fill="#3ECC5F" fillRule="evenodd" stroke="none" />
      <g id="Group" transform="translate(12.419189 9.498047)">
        <path d="M0.0708929 3.03541L0.00877625 2.80359C-0.00837708 2.73957 -0.000385437 2.67887 0.0327521 2.62147C0.0658896 2.56408 0.114466 2.5268 0.178482 2.50965L9.51188 0.00877533C9.57589 -0.00837708 9.6366 -0.000385437 9.69399 0.0327521C9.75139 0.0658896 9.78866 0.114466 9.80581 0.178482L10.7179 3.58244C10.7351 3.64646 10.7271 3.70716 10.6939 3.76456C10.6608 3.82195 10.6122 3.85923 10.5482 3.87638L1.2148 6.37726C1.15079 6.39441 1.09008 6.38642 1.03269 6.35328C0.975291 6.32014 0.938017 6.27157 0.920865 6.20755L0.0708929 3.03541Z" id="Rectangle" fill="#D8D8D8" fillRule="evenodd" stroke="none" />
        <g id="Group" transform="translate(0.79052734 2.4537354)">
          <path d="M1.81694 2.27173L1.78588 2.15582C1.77731 2.12381 1.7813 2.09345 1.79787 2.06476C1.81444 2.03606 1.83873 2.01742 1.87074 2.00885L2.20491 1.9193C2.23692 1.91073 2.26727 1.91472 2.29596 1.93129C2.32466 1.94786 2.3433 1.97215 2.35188 2.00416L2.44142 2.33833C2.44999 2.37034 2.446 2.40069 2.42943 2.42939C2.41286 2.45809 2.38857 2.47672 2.35657 2.4853L2.02239 2.57484C1.99039 2.58342 1.96003 2.57942 1.93133 2.56285C1.90264 2.54628 1.884 2.52199 1.87542 2.48999L1.81694 2.27173Z" id="Rectangle" fill="#4A4A4A" fillRule="evenodd" stroke="none" />
          <path d="M2.4876 2.09192L2.45654 1.97601C2.44796 1.944 2.45196 1.91364 2.46853 1.88495C2.48509 1.85625 2.50938 1.83761 2.54139 1.82904L2.87556 1.73949C2.90757 1.73092 2.93792 1.73492 2.96662 1.75148C2.99532 1.76805 3.01395 1.79234 3.02253 1.82435L3.11207 2.15852C3.12065 2.19053 3.11665 2.22088 3.10008 2.24958C3.08351 2.27828 3.05923 2.29691 3.02722 2.30549L2.69305 2.39503C2.66104 2.40361 2.63069 2.39961 2.60199 2.38304C2.57329 2.36647 2.55465 2.34219 2.54608 2.31018L2.4876 2.09192Z" id="Rectangle" fill="#4A4A4A" fillRule="evenodd" stroke="none" />
          <path d="M3.15849 1.91223L3.12744 1.79632C3.11886 1.76431 3.12285 1.73396 3.13942 1.70526C3.15599 1.67656 3.18028 1.65793 3.21229 1.64935L3.54646 1.55981C3.57847 1.55123 3.60882 1.55523 3.63752 1.5718C3.66622 1.58836 3.68485 1.61265 3.69343 1.64466L3.78297 1.97883C3.79155 2.01084 3.78755 2.04119 3.77098 2.06989C3.75441 2.09859 3.73013 2.11722 3.69812 2.1258L3.36395 2.21534C3.33194 2.22392 3.30159 2.21992 3.27289 2.20335C3.24419 2.18679 3.22555 2.1625 3.21698 2.13049L3.15849 1.91223Z" id="Rectangle" fill="#4A4A4A" fillRule="evenodd" stroke="none" />
          <path d="M3.82915 1.73254L3.79809 1.61663C3.78951 1.58462 3.79351 1.55427 3.81008 1.52557C3.82665 1.49687 3.85093 1.47824 3.88294 1.46966L4.21711 1.38012C4.24912 1.37154 4.27947 1.37554 4.30817 1.39211C4.33687 1.40868 4.35551 1.43296 4.36408 1.46497L4.45362 1.79914C4.4622 1.83115 4.45821 1.8615 4.44164 1.8902C4.42507 1.9189 4.40078 1.93754 4.36877 1.94611L4.0346 2.03565C4.00259 2.04423 3.97224 2.04024 3.94354 2.02367C3.91484 2.0071 3.89621 1.98281 3.88763 1.9508L3.82915 1.73254Z" id="Rectangle" fill="#4A4A4A" fillRule="evenodd" stroke="none" />
          <path d="M4.50005 1.55273L4.46899 1.43682C4.46041 1.40481 4.46441 1.37446 4.48098 1.34576C4.49755 1.31707 4.52183 1.29843 4.55384 1.28985L4.88801 1.20031C4.92002 1.19173 4.95037 1.19573 4.97907 1.2123C5.00777 1.22887 5.02641 1.25316 5.03498 1.28516L5.12452 1.61933C5.1331 1.65134 5.1291 1.6817 5.11253 1.71039C5.09597 1.73909 5.07168 1.75773 5.03967 1.7663L4.7055 1.85584C4.67349 1.86442 4.64314 1.86043 4.61444 1.84386C4.58574 1.82729 4.56711 1.803 4.55853 1.77099L4.50005 1.55273Z" id="Rectangle" fill="#4A4A4A" fillRule="evenodd" stroke="none" />
          <path d="M5.1707 1.37304L5.13964 1.25713C5.13107 1.22513 5.13506 1.19477 5.15163 1.16608C5.1682 1.13738 5.19249 1.11874 5.2245 1.11016L5.55867 1.02062C5.59068 1.01205 5.62103 1.01604 5.64973 1.03261C5.67842 1.04918 5.69706 1.07347 5.70564 1.10548L5.79518 1.43965C5.80375 1.47166 5.79976 1.50201 5.78319 1.53071C5.76662 1.5594 5.74233 1.57804 5.71032 1.58662L5.37615 1.67616C5.34414 1.68473 5.31379 1.68074 5.28509 1.66417C5.2564 1.6476 5.23776 1.62331 5.22918 1.5913L5.1707 1.37304Z" id="Rectangle" fill="#4A4A4A" fillRule="evenodd" stroke="none" />
          <path d="M5.8416 1.19324L5.81054 1.07732C5.80196 1.04532 5.80596 1.01496 5.82253 0.986266C5.8391 0.957568 5.86339 0.938931 5.89539 0.930354L6.22957 0.840813C6.26157 0.832237 6.29193 0.836233 6.32062 0.852802C6.34932 0.86937 6.36796 0.893658 6.37654 0.925666L6.46608 1.25984C6.47465 1.29185 6.47066 1.3222 6.45409 1.3509C6.43752 1.37959 6.41323 1.39823 6.38122 1.40681L6.04705 1.49635C6.01504 1.50492 5.98469 1.50093 5.95599 1.48436C5.92729 1.46779 5.90866 1.4435 5.90008 1.41149L5.8416 1.19324Z" id="Rectangle" fill="#4A4A4A" fillRule="evenodd" stroke="none" />
          <path d="M6.51225 1.01355L6.4812 0.897636C6.47262 0.865629 6.47661 0.835275 6.49318 0.806578C6.50975 0.777881 6.53404 0.759243 6.56605 0.750667L6.90022 0.661125C6.93223 0.65255 6.96258 0.656546 6.99128 0.673114C7.01998 0.689683 7.03861 0.713971 7.04719 0.745978L7.13673 1.08015C7.14531 1.11216 7.14131 1.14251 7.12474 1.17121C7.10817 1.19991 7.08389 1.21854 7.05188 1.22712L6.71771 1.31666C6.6857 1.32524 6.65535 1.32124 6.62665 1.30467C6.59795 1.2881 6.57931 1.26382 6.57074 1.23181L6.51225 1.01355Z" id="Rectangle" fill="#4A4A4A" fillRule="evenodd" stroke="none" />
          <path d="M7.18315 0.83386L7.15209 0.717949C7.14352 0.685941 7.14751 0.655588 7.16408 0.626891C7.18065 0.598193 7.20494 0.579556 7.23695 0.570979L7.57112 0.481438C7.60313 0.472862 7.63348 0.476859 7.66218 0.493427C7.69087 0.509994 7.70951 0.534283 7.71809 0.566291L7.80763 0.900462C7.8162 0.932471 7.81221 0.962823 7.79564 0.991521C7.77907 1.02022 7.75478 1.03886 7.72277 1.04743L7.3886 1.13697C7.3566 1.14555 7.32624 1.14155 7.29755 1.12498C7.26885 1.10842 7.25021 1.08413 7.24163 1.05212L7.18315 0.83386Z" id="Rectangle" fill="#4A4A4A" fillRule="evenodd" stroke="none" />
          <path d="M0.089003 2.48629L1.51309 2.1047C1.5771 2.08755 1.6429 2.12554 1.66006 2.18956L1.74957 2.52361C1.76672 2.58763 1.72873 2.65343 1.66471 2.67058L0.24063 3.05216C0.176613 3.06932 0.110814 3.03133 0.0936603 2.96731L0.00411896 2.63314C-0.0130344 2.56912 0.0249554 2.50332 0.0889719 2.48617L0.089003 2.48629ZM7.92847 0.385732L9.35267 0.00411804C9.41669 -0.0130344 9.48249 0.0249554 9.49964 0.0889718L9.58915 0.423027C9.60631 0.487043 9.56832 0.552844 9.5043 0.569996L8.07998 0.951641C8.01597 0.968794 7.95017 0.930804 7.93302 0.866788L7.84347 0.532616C7.82632 0.468601 7.86431 0.402799 7.92833 0.385647L7.92847 0.385732Z" id="Shape" fill="#4A4A4A" fillRule="evenodd" stroke="none" />
        </g>
        <g id="Group" transform="translate(0.42773438 1.098999)">
          <path d="M0.0889719 2.48657L0.632594 2.34091C0.69661 2.32376 0.762412 2.36175 0.779564 2.42576L0.869074 2.75982C0.886228 2.82384 0.848237 2.88963 0.784221 2.90679L0.240599 3.05245C0.176582 3.0696 0.110782 3.03161 0.0936291 2.9676L0.00411896 2.63354C-0.0130334 2.56953 0.0249554 2.50373 0.0889719 2.48657L0.0889719 2.48657Z" id="Shape" fill="#4A4A4A" fillRule="evenodd" stroke="none" />
          <path d="M0.915573 2.51355L0.884515 2.39764C0.875938 2.36563 0.879935 2.33528 0.896503 2.30658C0.913071 2.27788 0.93736 2.25924 0.969368 2.25067L1.30354 2.16113C1.33555 2.15255 1.3659 2.15655 1.3946 2.17311C1.4233 2.18968 1.44193 2.21397 1.45051 2.24598L1.54005 2.58015C1.54863 2.61216 1.54463 2.64251 1.52806 2.67121C1.51149 2.69991 1.48721 2.71854 1.4552 2.72712L1.12103 2.81666C1.08902 2.82524 1.05866 2.82124 1.02997 2.80467C1.00127 2.7881 0.982632 2.76382 0.974056 2.73181L0.915573 2.51355Z" id="Rectangle" fill="#4A4A4A" fillRule="evenodd" stroke="none" />
          <path d="M1.58623 2.33386L1.55517 2.21795C1.54659 2.18594 1.55059 2.15559 1.56716 2.12689C1.58373 2.09819 1.60801 2.07956 1.64002 2.07098L1.97419 1.98144C2.0062 1.97286 2.03655 1.97686 2.06525 1.99343C2.09395 2.01 2.11259 2.03428 2.12116 2.06629L2.2107 2.40046C2.21928 2.43247 2.21528 2.46282 2.19872 2.49152C2.18215 2.52022 2.15786 2.53886 2.12585 2.54743L1.79168 2.63697C1.75967 2.64555 1.72932 2.64155 1.70062 2.62498C1.67192 2.60842 1.65329 2.58413 1.64471 2.55212L1.58623 2.33386Z" id="Rectangle" fill="#4A4A4A" fillRule="evenodd" stroke="none" />
          <path d="M2.25713 2.15417L2.22607 2.03826C2.21749 2.00625 2.22149 1.9759 2.23806 1.9472C2.25462 1.91851 2.27891 1.89987 2.31092 1.89129L2.64509 1.80175C2.6771 1.79317 2.70745 1.79717 2.73615 1.81374C2.76485 1.83031 2.78348 1.8546 2.79206 1.8866L2.8816 2.22077C2.89018 2.25278 2.88618 2.28314 2.86961 2.31183C2.85304 2.34053 2.82876 2.35917 2.79675 2.36774L2.46258 2.45729C2.43057 2.46586 2.40022 2.46187 2.37152 2.4453C2.34282 2.42873 2.32418 2.40444 2.31561 2.37243L2.25713 2.15417Z" id="Rectangle" fill="#4A4A4A" fillRule="evenodd" stroke="none" />
          <path d="M2.92778 1.97436L2.89672 1.85845C2.88815 1.82644 2.89214 1.79609 2.90871 1.76739C2.92528 1.7387 2.94957 1.72006 2.98158 1.71148L3.31575 1.62194C3.34776 1.61337 3.37811 1.61736 3.40681 1.63393C3.4355 1.6505 3.45414 1.67479 3.46272 1.70679L3.55226 2.04096C3.56083 2.07297 3.55684 2.10333 3.54027 2.13202C3.5237 2.16072 3.49941 2.17936 3.4674 2.18793L3.13323 2.27748C3.10122 2.28605 3.07087 2.28206 3.04217 2.26549C3.01348 2.24892 2.99484 2.22463 2.98626 2.19262L2.92778 1.97436Z" id="Rectangle" fill="#4A4A4A" fillRule="evenodd" stroke="none" />
          <path d="M3.59868 1.79468L3.56762 1.67876C3.55904 1.64676 3.56304 1.6164 3.57961 1.58771C3.59618 1.55901 3.62047 1.54037 3.65247 1.53179L3.98665 1.44225C4.01865 1.43368 4.04901 1.43767 4.0777 1.45424C4.1064 1.47081 4.12504 1.4951 4.13362 1.52711L4.22316 1.86128C4.23173 1.89329 4.22774 1.92364 4.21117 1.95234C4.1946 1.98103 4.17031 1.99967 4.1383 2.00825L3.80413 2.09779C3.77212 2.10636 3.74177 2.10237 3.71307 2.0858C3.68438 2.06923 3.66574 2.04494 3.65716 2.01294L3.59868 1.79468Z" id="Rectangle" fill="#4A4A4A" fillRule="evenodd" stroke="none" />
          <path d="M4.26933 1.61487L4.23828 1.49895C4.2297 1.46695 4.23369 1.43659 4.25026 1.4079C4.26683 1.3792 4.29112 1.36056 4.32313 1.35199L4.6573 1.26244C4.68931 1.25387 4.71966 1.25786 4.74836 1.27443C4.77706 1.291 4.79569 1.31529 4.80427 1.3473L4.89381 1.68147C4.90239 1.71348 4.89839 1.74383 4.88182 1.77253C4.86525 1.80123 4.84097 1.81986 4.80896 1.82844L4.47479 1.91798C4.44278 1.92656 4.41243 1.92256 4.38373 1.90599C4.35503 1.88942 4.33639 1.86513 4.32782 1.83313L4.26933 1.61487Z" id="Rectangle" fill="#4A4A4A" fillRule="evenodd" stroke="none" />
          <path d="M4.94023 1.43518L4.90917 1.31927C4.9006 1.28726 4.90459 1.25691 4.92116 1.22821C4.93773 1.19951 4.96202 1.18087 4.99403 1.1723L5.3282 1.08276C5.36021 1.07418 5.39056 1.07818 5.41926 1.09475C5.44795 1.11131 5.46659 1.1356 5.47517 1.16761L5.56471 1.50178C5.57328 1.53379 5.56929 1.56414 5.55272 1.59284C5.53615 1.62154 5.51186 1.64017 5.47986 1.64875L5.14568 1.73829C5.11368 1.74687 5.08332 1.74287 5.05463 1.7263C5.02593 1.70974 5.00729 1.68545 4.99871 1.65344L4.94023 1.43518Z" id="Rectangle" fill="#4A4A4A" fillRule="evenodd" stroke="none" />
          <path d="M5.61089 1.25549L5.57983 1.13958C5.57125 1.10757 5.57525 1.07722 5.59182 1.04852C5.60839 1.01982 5.63267 1.00119 5.66468 0.99261L5.99885 0.903069C6.03086 0.894493 6.06121 0.898489 6.08991 0.915058C6.11861 0.931625 6.13725 0.955914 6.14582 0.987922L6.23536 1.32209C6.24394 1.3541 6.23994 1.38445 6.22337 1.41315C6.20681 1.44185 6.18252 1.46049 6.15051 1.46906L5.81634 1.5586C5.78433 1.56718 5.75398 1.56319 5.72528 1.54662C5.69658 1.53005 5.67795 1.50576 5.66937 1.47375L5.61089 1.25549Z" id="Rectangle" fill="#4A4A4A" fillRule="evenodd" stroke="none" />
          <path d="M6.28154 1.0758L6.25048 0.959892C6.24191 0.927884 6.2459 0.897531 6.26247 0.868834C6.27904 0.840137 6.30333 0.821499 6.33534 0.812923L6.66951 0.723381C6.70152 0.714806 6.73187 0.718802 6.76056 0.73537C6.78926 0.751938 6.8079 0.776226 6.81648 0.808234L6.90602 1.14241C6.91459 1.17441 6.9106 1.20477 6.89403 1.23346C6.87746 1.26216 6.85317 1.2808 6.82116 1.28937L6.48699 1.37892C6.45498 1.38749 6.42463 1.3835 6.39593 1.36693C6.36724 1.35036 6.3486 1.32607 6.34002 1.29406L6.28154 1.0758Z" id="Rectangle" fill="#4A4A4A" fillRule="evenodd" stroke="none" />
          <path d="M6.95244 0.895994L6.92138 0.780083C6.9128 0.748075 6.9168 0.717722 6.93337 0.689024C6.94994 0.660327 6.97423 0.64169 7.00623 0.633113L7.3404 0.543572C7.37241 0.534996 7.40277 0.538992 7.43146 0.555561C7.46016 0.572128 7.4788 0.596417 7.48737 0.628425L7.57691 0.962596C7.58549 0.994604 7.5815 1.02496 7.56493 1.05365C7.54836 1.08235 7.52407 1.10099 7.49206 1.10957L7.15789 1.19911C7.12588 1.20768 7.09553 1.20369 7.06683 1.18712C7.03813 1.17055 7.0195 1.14626 7.01092 1.11425L6.95244 0.895994Z" id="Rectangle" fill="#4A4A4A" fillRule="evenodd" stroke="none" />
          <path d="M7.62309 0.716306L7.59204 0.600395C7.58346 0.568387 7.58745 0.538034 7.60402 0.509337C7.62059 0.48064 7.64488 0.462002 7.67689 0.453426L8.01106 0.363884C8.04307 0.355309 8.07342 0.359305 8.10212 0.375873C8.13082 0.39244 8.14945 0.416729 8.15803 0.448737L8.24757 0.782908C8.25615 0.814917 8.25215 0.845269 8.23558 0.873968C8.21901 0.902666 8.19473 0.921302 8.16272 0.929878L7.82855 1.01942C7.79654 1.028 7.76619 1.024 7.73749 1.00743C7.70879 0.990863 7.69015 0.966575 7.68158 0.934566L7.62309 0.716306Z" id="Rectangle" fill="#4A4A4A" fillRule="evenodd" stroke="none" />
          <path d="M8.29399 0.536497L8.26293 0.420586C8.25436 0.388578 8.25835 0.358224 8.27492 0.329527C8.29149 0.30083 8.31578 0.282193 8.34779 0.273616L8.68196 0.184075C8.71397 0.175499 8.74432 0.179495 8.77302 0.196064C8.80171 0.212632 8.82035 0.23692 8.82893 0.268928L8.91847 0.603099C8.92704 0.635107 8.92305 0.665461 8.90648 0.694158C8.88991 0.722856 8.86562 0.741493 8.83362 0.750068L8.49944 0.83961C8.46744 0.848186 8.43708 0.844191 8.40839 0.827622C8.37969 0.811053 8.36105 0.786765 8.35247 0.754757L8.29399 0.536497Z" id="Rectangle" fill="#4A4A4A" fillRule="evenodd" stroke="none" />
          <path d="M8.96465 0.356809L8.93359 0.240898C8.92501 0.20889 8.92901 0.178537 8.94558 0.14984C8.96215 0.121143 8.98643 0.102505 9.01844 0.0939285L9.35261 0.00438721C9.38462 -0.00418854 9.41497 -0.000192261 9.44367 0.016376C9.47237 0.0329443 9.491 0.0572324 9.49958 0.0892401L9.58912 0.423411C9.5977 0.45542 9.5937 0.485773 9.57714 0.51447C9.56056 0.543169 9.53628 0.561805 9.50427 0.570381L9.1701 0.659922C9.13809 0.668499 9.10774 0.664503 9.07904 0.647934C9.05034 0.631366 9.0317 0.607078 9.02313 0.575069L8.96465 0.356809Z" id="Rectangle" fill="#4A4A4A" fillRule="evenodd" stroke="none" />
        </g>
        <g id="Group" transform="translate(0.2553711 0.45739746)">
          <path d="M9.50458 0.570113L8.96084 0.715807C8.89683 0.73296 8.83103 0.69497 8.81387 0.630954L8.72433 0.296783C8.70718 0.232766 8.74517 0.166967 8.80919 0.149813L9.35292 0.00411896C9.41694 -0.0130344 9.48274 0.0249554 9.49989 0.0889719L9.58943 0.423143C9.60659 0.487159 9.5686 0.552959 9.50458 0.570113L9.50458 0.570113Z" id="Shape" fill="#4A4A4A" fillRule="evenodd" stroke="none" />
          <path d="M8.67818 0.543097L8.70924 0.659008C8.71782 0.691016 8.71382 0.721369 8.69725 0.750066C8.68068 0.778763 8.65639 0.797401 8.62439 0.805977L8.29022 0.895519C8.25821 0.904094 8.22786 0.900098 8.19916 0.883531C8.17046 0.866962 8.15182 0.842674 8.14325 0.810666L8.05371 0.476495C8.04513 0.444486 8.04912 0.414134 8.06569 0.385436C8.08226 0.356737 8.10655 0.338101 8.13856 0.329525L8.47273 0.239984C8.50474 0.231407 8.53509 0.235403 8.56379 0.251972C8.59249 0.26854 8.61112 0.292828 8.6197 0.324837L8.67818 0.543097Z" id="Rectangle" fill="#4A4A4A" fillRule="evenodd" stroke="none" />
          <path d="M8.00728 0.722906L8.03834 0.838817C8.04692 0.870825 8.04292 0.901179 8.02635 0.929876C8.00978 0.958573 7.9855 0.97721 7.95349 0.985787L7.61932 1.07533C7.58731 1.0839 7.55696 1.07991 7.52826 1.06334C7.49956 1.04677 7.48092 1.02248 7.47235 0.990475L7.38281 0.656304C7.37423 0.624296 7.37823 0.593943 7.39479 0.565246C7.41136 0.536547 7.43565 0.51791 7.46766 0.509335L7.80183 0.419793C7.83384 0.411217 7.86419 0.415212 7.89289 0.431781C7.92159 0.44835 7.94022 0.472638 7.9488 0.504646L8.00728 0.722906Z" id="Rectangle" fill="#4A4A4A" fillRule="evenodd" stroke="none" />
          <path d="M7.33663 0.902594L7.36769 1.0185C7.37626 1.05051 7.37227 1.08087 7.3557 1.10956C7.33913 1.13826 7.31484 1.1569 7.28283 1.16547L6.94866 1.25502C6.91665 1.26359 6.8863 1.2596 6.8576 1.24303C6.82891 1.22646 6.81027 1.20217 6.80169 1.17016L6.71215 0.835992C6.70358 0.803983 6.70757 0.773631 6.72414 0.744933C6.74071 0.716234 6.765 0.697598 6.79701 0.689022L7.13118 0.599481C7.16319 0.590904 7.19354 0.5949 7.22224 0.611469C7.25093 0.628037 7.26957 0.652325 7.27815 0.684334L7.33663 0.902594Z" id="Rectangle" fill="#4A4A4A" fillRule="evenodd" stroke="none" />
          <path d="M6.66573 1.08228L6.69679 1.19819C6.70536 1.2302 6.70137 1.26055 6.6848 1.28925C6.66823 1.31795 6.64394 1.33659 6.61194 1.34516L6.27776 1.4347C6.24576 1.44328 6.2154 1.43928 6.18671 1.42272C6.15801 1.40615 6.13937 1.38186 6.13079 1.34985L6.04125 1.01568C6.03268 0.983671 6.03667 0.953318 6.05324 0.924621C6.06981 0.895922 6.0941 0.877285 6.12611 0.86871L6.46028 0.779168C6.49229 0.770592 6.52264 0.774587 6.55134 0.791156C6.58003 0.807725 6.59867 0.832013 6.60725 0.864021L6.66573 1.08228Z" id="Rectangle" fill="#4A4A4A" fillRule="evenodd" stroke="none" />
          <path d="M5.99508 1.26209L6.02613 1.378C6.03471 1.41001 6.03071 1.44036 6.01415 1.46906C5.99758 1.49776 5.97329 1.51639 5.94128 1.52497L5.60711 1.61451C5.5751 1.62309 5.54475 1.61909 5.51605 1.60252C5.48735 1.58596 5.46872 1.56167 5.46014 1.52966L5.3706 1.19549C5.36202 1.16348 5.36602 1.13313 5.38259 1.10443C5.39916 1.07573 5.42344 1.0571 5.45545 1.04852L5.78962 0.958978C5.82163 0.950401 5.85198 0.954397 5.88068 0.970966C5.90938 0.987534 5.92802 1.01182 5.93659 1.04383L5.99508 1.26209Z" id="Rectangle" fill="#4A4A4A" fillRule="evenodd" stroke="none" />
          <path d="M5.32418 1.44178L5.35524 1.55769C5.36381 1.5897 5.35982 1.62005 5.34325 1.64875C5.32668 1.67744 5.30239 1.69608 5.27038 1.70466L4.93621 1.7942C4.9042 1.80278 4.87385 1.79878 4.84515 1.78221C4.81645 1.76564 4.79782 1.74136 4.78924 1.70935L4.6997 1.37518C4.69112 1.34317 4.69512 1.31282 4.71169 1.28412C4.72826 1.25542 4.75255 1.23678 4.78455 1.22821L5.11873 1.13867C5.15073 1.13009 5.18109 1.13408 5.20978 1.15065C5.23848 1.16722 5.25712 1.19151 5.2657 1.22352L5.32418 1.44178Z" id="Rectangle" fill="#4A4A4A" fillRule="evenodd" stroke="none" />
          <path d="M4.65352 1.62147L4.68458 1.73738C4.69316 1.76938 4.68916 1.79974 4.67259 1.82844C4.65602 1.85713 4.63174 1.87577 4.59973 1.88435L4.26556 1.97389C4.23355 1.98246 4.2032 1.97847 4.1745 1.9619C4.1458 1.94533 4.12716 1.92104 4.11859 1.88903L4.02905 1.55486C4.02047 1.52286 4.02447 1.4925 4.04104 1.46381C4.0576 1.43511 4.08189 1.41647 4.1139 1.40789L4.44807 1.31835C4.48008 1.30978 4.51043 1.31377 4.53913 1.33034C4.56783 1.34691 4.58646 1.3712 4.59504 1.40321L4.65352 1.62147Z" id="Rectangle" fill="#4A4A4A" fillRule="evenodd" stroke="none" />
          <path d="M3.98262 1.80128L4.01368 1.91719C4.02226 1.94919 4.01826 1.97955 4.00169 2.00824C3.98513 2.03694 3.96084 2.05558 3.92883 2.06416L3.59466 2.1537C3.56265 2.16227 3.5323 2.15828 3.5036 2.14171C3.4749 2.12514 3.45627 2.10085 3.44769 2.06884L3.35815 1.73467C3.34957 1.70266 3.35357 1.67231 3.37014 1.64362C3.38671 1.61492 3.41099 1.59628 3.443 1.5877L3.77717 1.49816C3.80918 1.48959 3.83953 1.49358 3.86823 1.51015C3.89693 1.52672 3.91557 1.55101 3.92414 1.58302L3.98262 1.80128Z" id="Rectangle" fill="#4A4A4A" fillRule="evenodd" stroke="none" />
          <path d="M3.31197 1.98096L3.34303 2.09687C3.3516 2.12888 3.34761 2.15924 3.33104 2.18793C3.31447 2.21663 3.29018 2.23527 3.25817 2.24384L2.924 2.33338C2.89199 2.34196 2.86164 2.33796 2.83295 2.3214C2.80425 2.30483 2.78561 2.28054 2.77703 2.24853L2.68749 1.91436C2.67892 1.88235 2.68291 1.852 2.69948 1.8233C2.71605 1.7946 2.74034 1.77597 2.77235 1.76739L3.10652 1.67785C3.13853 1.66927 3.16888 1.67327 3.19758 1.68984C3.22627 1.70641 3.24491 1.73069 3.25349 1.7627L3.31197 1.98096Z" id="Rectangle" fill="#4A4A4A" fillRule="evenodd" stroke="none" />
          <path d="M2.64107 2.16077L2.67213 2.27668C2.68071 2.30869 2.67671 2.33904 2.66014 2.36774C2.64357 2.39644 2.61928 2.41508 2.58728 2.42365L2.25311 2.51319C2.2211 2.52177 2.19074 2.51777 2.16205 2.50121C2.13335 2.48464 2.11471 2.46035 2.10614 2.42834L2.01659 2.09417C2.00802 2.06216 2.01201 2.03181 2.02858 2.00311C2.04515 1.97441 2.06944 1.95578 2.10145 1.9472L2.43562 1.85766C2.46763 1.84908 2.49798 1.85308 2.52668 1.86965C2.55537 1.88622 2.57401 1.9105 2.58259 1.94251L2.64107 2.16077Z" id="Rectangle" fill="#4A4A4A" fillRule="evenodd" stroke="none" />
          <path d="M1.97042 2.34046L2.00147 2.45637C2.01005 2.48838 2.00606 2.51873 1.98949 2.54743C1.97292 2.57613 1.94863 2.59476 1.91662 2.60334L1.58245 2.69288C1.55044 2.70146 1.52009 2.69746 1.49139 2.68089C1.46269 2.66433 1.44406 2.64004 1.43548 2.60803L1.34594 2.27386C1.33736 2.24185 1.34136 2.2115 1.35793 2.1828C1.3745 2.1541 1.39878 2.13547 1.43079 2.12689L1.76496 2.03735C1.79697 2.02877 1.82733 2.03277 1.85602 2.04934C1.88472 2.0659 1.90336 2.09019 1.91193 2.1222L1.97042 2.34046Z" id="Rectangle" fill="#4A4A4A" fillRule="evenodd" stroke="none" />
          <path d="M1.29952 2.52015L1.33058 2.63606C1.33915 2.66807 1.33516 2.69842 1.31859 2.72712C1.30202 2.75581 1.27773 2.77445 1.24572 2.78303L0.911552 2.87257C0.879544 2.88115 0.849191 2.87715 0.820494 2.86058C0.791796 2.84401 0.77316 2.81972 0.764583 2.78772L0.675041 2.45355C0.666466 2.42154 0.670461 2.39118 0.687029 2.36249C0.703598 2.33379 0.727886 2.31515 0.759894 2.30658L1.09407 2.21703C1.12607 2.20846 1.15643 2.21245 1.18512 2.22902C1.21382 2.24559 1.23246 2.26988 1.24104 2.30189L1.29952 2.52015Z" id="Rectangle" fill="#4A4A4A" fillRule="evenodd" stroke="none" />
          <path d="M0.628864 2.69996L0.659922 2.81587C0.668499 2.84788 0.664503 2.87823 0.647934 2.90693C0.631366 2.93562 0.607077 2.95426 0.575069 2.96284L0.240898 3.05238C0.208889 3.06096 0.178537 3.05696 0.14984 3.04039C0.121142 3.02382 0.102505 2.99953 0.0939285 2.96753L0.00438721 2.63336C-0.00418854 2.60135 -0.000193176 2.57099 0.0163751 2.5423C0.0329434 2.5136 0.0572314 2.49496 0.0892401 2.48639L0.423411 2.39684C0.455419 2.38827 0.485772 2.39226 0.51447 2.40883C0.543168 2.4254 0.561805 2.44969 0.570381 2.4817L0.628864 2.69996Z" id="Rectangle" fill="#4A4A4A" fillRule="evenodd" stroke="none" />
          <path d="M8.67818 0.543097L8.70924 0.659008C8.71782 0.691016 8.71382 0.721369 8.69725 0.750066C8.68068 0.778763 8.65639 0.797401 8.62439 0.805977L8.29022 0.895519C8.25821 0.904094 8.22786 0.900098 8.19916 0.883531C8.17046 0.866962 8.15182 0.842674 8.14325 0.810666L8.05371 0.476495C8.04513 0.444486 8.04912 0.414134 8.06569 0.385436C8.08226 0.356737 8.10655 0.338101 8.13856 0.329525L8.47273 0.239984C8.50474 0.231407 8.53509 0.235403 8.56379 0.251972C8.59249 0.26854 8.61112 0.292828 8.6197 0.324837L8.67818 0.543097Z" id="Rectangle" fill="#4A4A4A" fillRule="evenodd" stroke="none" />
          <path d="M8.00728 0.722906L8.03834 0.838817C8.04692 0.870825 8.04292 0.901179 8.02635 0.929876C8.00978 0.958573 7.9855 0.97721 7.95349 0.985787L7.61932 1.07533C7.58731 1.0839 7.55696 1.07991 7.52826 1.06334C7.49956 1.04677 7.48092 1.02248 7.47235 0.990475L7.38281 0.656304C7.37423 0.624296 7.37823 0.593943 7.39479 0.565246C7.41136 0.536547 7.43565 0.51791 7.46766 0.509335L7.80183 0.419793C7.83384 0.411217 7.86419 0.415212 7.89289 0.431781C7.92159 0.44835 7.94022 0.472638 7.9488 0.504646L8.00728 0.722906Z" id="Rectangle" fill="#4A4A4A" fillRule="evenodd" stroke="none" />
          <path d="M7.33663 0.902594L7.36769 1.0185C7.37626 1.05051 7.37227 1.08087 7.3557 1.10956C7.33913 1.13826 7.31484 1.1569 7.28283 1.16547L6.94866 1.25502C6.91665 1.26359 6.8863 1.2596 6.8576 1.24303C6.82891 1.22646 6.81027 1.20217 6.80169 1.17016L6.71215 0.835992C6.70358 0.803983 6.70757 0.773631 6.72414 0.744933C6.74071 0.716234 6.765 0.697598 6.79701 0.689022L7.13118 0.599481C7.16319 0.590904 7.19354 0.5949 7.22224 0.611469C7.25093 0.628037 7.26957 0.652325 7.27815 0.684334L7.33663 0.902594Z" id="Rectangle" fill="#4A4A4A" fillRule="evenodd" stroke="none" />
          <path d="M6.66573 1.08228L6.69679 1.19819C6.70536 1.2302 6.70137 1.26055 6.6848 1.28925C6.66823 1.31795 6.64394 1.33659 6.61194 1.34516L6.27776 1.4347C6.24576 1.44328 6.2154 1.43928 6.18671 1.42272C6.15801 1.40615 6.13937 1.38186 6.13079 1.34985L6.04125 1.01568C6.03268 0.983671 6.03667 0.953318 6.05324 0.924621C6.06981 0.895922 6.0941 0.877285 6.12611 0.86871L6.46028 0.779168C6.49229 0.770592 6.52264 0.774587 6.55134 0.791156C6.58003 0.807725 6.59867 0.832013 6.60725 0.864021L6.66573 1.08228Z" id="Rectangle" fill="#4A4A4A" fillRule="evenodd" stroke="none" />
          <path d="M5.99508 1.26209L6.02613 1.378C6.03471 1.41001 6.03071 1.44036 6.01415 1.46906C5.99758 1.49776 5.97329 1.51639 5.94128 1.52497L5.60711 1.61451C5.5751 1.62309 5.54475 1.61909 5.51605 1.60252C5.48735 1.58596 5.46872 1.56167 5.46014 1.52966L5.3706 1.19549C5.36202 1.16348 5.36602 1.13313 5.38259 1.10443C5.39916 1.07573 5.42344 1.0571 5.45545 1.04852L5.78962 0.958978C5.82163 0.950401 5.85198 0.954397 5.88068 0.970966C5.90938 0.987534 5.92802 1.01182 5.93659 1.04383L5.99508 1.26209Z" id="Rectangle" fill="#4A4A4A" fillRule="evenodd" stroke="none" />
          <path d="M5.32418 1.44178L5.35524 1.55769C5.36381 1.5897 5.35982 1.62005 5.34325 1.64875C5.32668 1.67744 5.30239 1.69608 5.27038 1.70466L4.93621 1.7942C4.9042 1.80278 4.87385 1.79878 4.84515 1.78221C4.81645 1.76564 4.79782 1.74136 4.78924 1.70935L4.6997 1.37518C4.69112 1.34317 4.69512 1.31282 4.71169 1.28412C4.72826 1.25542 4.75255 1.23678 4.78455 1.22821L5.11873 1.13867C5.15073 1.13009 5.18109 1.13408 5.20978 1.15065C5.23848 1.16722 5.25712 1.19151 5.2657 1.22352L5.32418 1.44178Z" id="Rectangle" fill="#4A4A4A" fillRule="evenodd" stroke="none" />
          <path d="M4.65352 1.62147L4.68458 1.73738C4.69316 1.76938 4.68916 1.79974 4.67259 1.82844C4.65602 1.85713 4.63174 1.87577 4.59973 1.88435L4.26556 1.97389C4.23355 1.98246 4.2032 1.97847 4.1745 1.9619C4.1458 1.94533 4.12716 1.92104 4.11859 1.88903L4.02905 1.55486C4.02047 1.52286 4.02447 1.4925 4.04104 1.46381C4.0576 1.43511 4.08189 1.41647 4.1139 1.40789L4.44807 1.31835C4.48008 1.30978 4.51043 1.31377 4.53913 1.33034C4.56783 1.34691 4.58646 1.3712 4.59504 1.40321L4.65352 1.62147Z" id="Rectangle" fill="#4A4A4A" fillRule="evenodd" stroke="none" />
          <path d="M3.98262 1.80128L4.01368 1.91719C4.02226 1.94919 4.01826 1.97955 4.00169 2.00824C3.98513 2.03694 3.96084 2.05558 3.92883 2.06416L3.59466 2.1537C3.56265 2.16227 3.5323 2.15828 3.5036 2.14171C3.4749 2.12514 3.45627 2.10085 3.44769 2.06884L3.35815 1.73467C3.34957 1.70266 3.35357 1.67231 3.37014 1.64362C3.38671 1.61492 3.41099 1.59628 3.443 1.5877L3.77717 1.49816C3.80918 1.48959 3.83953 1.49358 3.86823 1.51015C3.89693 1.52672 3.91557 1.55101 3.92414 1.58302L3.98262 1.80128Z" id="Rectangle" fill="#4A4A4A" fillRule="evenodd" stroke="none" />
          <path d="M3.31197 1.98096L3.34303 2.09687C3.3516 2.12888 3.34761 2.15924 3.33104 2.18793C3.31447 2.21663 3.29018 2.23527 3.25817 2.24384L2.924 2.33338C2.89199 2.34196 2.86164 2.33796 2.83295 2.3214C2.80425 2.30483 2.78561 2.28054 2.77703 2.24853L2.68749 1.91436C2.67892 1.88235 2.68291 1.852 2.69948 1.8233C2.71605 1.7946 2.74034 1.77597 2.77235 1.76739L3.10652 1.67785C3.13853 1.66927 3.16888 1.67327 3.19758 1.68984C3.22627 1.70641 3.24491 1.73069 3.25349 1.7627L3.31197 1.98096Z" id="Rectangle" fill="#4A4A4A" fillRule="evenodd" stroke="none" />
          <path d="M2.64107 2.16077L2.67213 2.27668C2.68071 2.30869 2.67671 2.33904 2.66014 2.36774C2.64357 2.39644 2.61928 2.41508 2.58728 2.42365L2.25311 2.51319C2.2211 2.52177 2.19074 2.51777 2.16205 2.50121C2.13335 2.48464 2.11471 2.46035 2.10614 2.42834L2.01659 2.09417C2.00802 2.06216 2.01201 2.03181 2.02858 2.00311C2.04515 1.97441 2.06944 1.95578 2.10145 1.9472L2.43562 1.85766C2.46763 1.84908 2.49798 1.85308 2.52668 1.86965C2.55537 1.88622 2.57401 1.9105 2.58259 1.94251L2.64107 2.16077Z" id="Rectangle" fill="#4A4A4A" fillRule="evenodd" stroke="none" />
          <path d="M1.97042 2.34046L2.00147 2.45637C2.01005 2.48838 2.00606 2.51873 1.98949 2.54743C1.97292 2.57613 1.94863 2.59476 1.91662 2.60334L1.58245 2.69288C1.55044 2.70146 1.52009 2.69746 1.49139 2.68089C1.46269 2.66433 1.44406 2.64004 1.43548 2.60803L1.34594 2.27386C1.33736 2.24185 1.34136 2.2115 1.35793 2.1828C1.3745 2.1541 1.39878 2.13547 1.43079 2.12689L1.76496 2.03735C1.79697 2.02877 1.82733 2.03277 1.85602 2.04934C1.88472 2.0659 1.90336 2.09019 1.91193 2.1222L1.97042 2.34046Z" id="Rectangle" fill="#4A4A4A" fillRule="evenodd" stroke="none" />
          <path d="M1.29952 2.52015L1.33058 2.63606C1.33915 2.66807 1.33516 2.69842 1.31859 2.72712C1.30202 2.75581 1.27773 2.77445 1.24572 2.78303L0.911552 2.87257C0.879544 2.88115 0.849191 2.87715 0.820494 2.86058C0.791796 2.84401 0.77316 2.81972 0.764583 2.78772L0.675041 2.45355C0.666466 2.42154 0.670461 2.39118 0.687029 2.36249C0.703598 2.33379 0.727886 2.31515 0.759894 2.30658L1.09407 2.21703C1.12607 2.20846 1.15643 2.21245 1.18512 2.22902C1.21382 2.24559 1.23246 2.26988 1.24104 2.30189L1.29952 2.52015Z" id="Rectangle" fill="#4A4A4A" fillRule="evenodd" stroke="none" />
          <path d="M0.628864 2.69996L0.659922 2.81587C0.668499 2.84788 0.664503 2.87823 0.647934 2.90693C0.631366 2.93562 0.607077 2.95426 0.575069 2.96284L0.240898 3.05238C0.208889 3.06096 0.178537 3.05696 0.14984 3.04039C0.121142 3.02382 0.102505 2.99953 0.0939285 2.96753L0.00438721 2.63336C-0.00418854 2.60135 -0.000193176 2.57099 0.0163751 2.5423C0.0329434 2.5136 0.0572314 2.49496 0.0892401 2.48639L0.423411 2.39684C0.455419 2.38827 0.485772 2.39226 0.51447 2.40883C0.543168 2.4254 0.561805 2.44969 0.570381 2.4817L0.628864 2.69996Z" id="Rectangle" fill="#4A4A4A" fillRule="evenodd" stroke="none" />
        </g>
        <g id="Group" transform="translate(0.6074219 1.7698975)">
          <path d="M0.0889398 2.48637L0.863226 2.2789C0.927242 2.26175 0.993043 2.29974 1.0102 2.36375L1.09974 2.69792C1.11689 2.76194 1.0789 2.82774 1.01488 2.84489L0.240598 3.05236C0.176582 3.06951 0.110782 3.03152 0.0936291 2.96751L0.00411896 2.63345C-0.0130334 2.56944 0.0249554 2.50364 0.0889709 2.48648L0.0889398 2.48637Z" id="Shape" fill="#4A4A4A" fillRule="evenodd" stroke="none" />
          <g id="Group" transform="translate(1.1315918 0.29174805)">
            <path d="M0.0354465 2.15417L0.00438812 2.03826C-0.00418854 2.00625 -0.000192261 1.9759 0.016376 1.9472C0.0329443 1.91851 0.0572333 1.89987 0.089241 1.89129L0.423412 1.80175C0.455421 1.79317 0.485773 1.79717 0.51447 1.81374C0.543169 1.83031 0.561805 1.8546 0.570382 1.8866L0.659923 2.22077C0.668499 2.25278 0.664503 2.28314 0.647934 2.31183C0.631367 2.34053 0.607079 2.35917 0.57507 2.36774L0.240899 2.45729C0.208891 2.46586 0.178538 2.46187 0.14984 2.4453C0.121143 2.42873 0.102505 2.40444 0.0939294 2.37243L0.0354465 2.15417Z" id="Rectangle" fill="#4A4A4A" fillRule="evenodd" stroke="none" />
            <path d="M0.706345 1.97436L0.675287 1.85845C0.66671 1.82644 0.670706 1.79609 0.687274 1.76739C0.703843 1.7387 0.728132 1.72006 0.760139 1.71148L1.09431 1.62194C1.12632 1.61337 1.15667 1.61736 1.18537 1.63393C1.21407 1.6505 1.2327 1.67479 1.24128 1.70679L1.33082 2.04097C1.3394 2.07297 1.3354 2.10333 1.31883 2.13202C1.30226 2.16072 1.27798 2.17936 1.24597 2.18793L0.911797 2.27748C0.87979 2.28605 0.849436 2.28206 0.820738 2.26549C0.792041 2.24892 0.773404 2.22463 0.764828 2.19262L0.706345 1.97436Z" id="Rectangle" fill="#4A4A4A" fillRule="evenodd" stroke="none" />
            <path d="M1.377 1.79468L1.34594 1.67876C1.33737 1.64676 1.34136 1.6164 1.35793 1.58771C1.3745 1.55901 1.39879 1.54037 1.43079 1.53179L1.76497 1.44225C1.79697 1.43368 1.82733 1.43767 1.85602 1.45424C1.88472 1.47081 1.90336 1.4951 1.91194 1.52711L2.00148 1.86128C2.01005 1.89329 2.00606 1.92364 1.98949 1.95234C1.97292 1.98103 1.94863 1.99967 1.91662 2.00825L1.58245 2.09779C1.55044 2.10637 1.52009 2.10237 1.49139 2.0858C1.4627 2.06923 1.44406 2.04494 1.43548 2.01294L1.377 1.79468Z" id="Rectangle" fill="#4A4A4A" fillRule="evenodd" stroke="none" />
            <path d="M2.0479 1.61487L2.01684 1.49895C2.00826 1.46695 2.01226 1.43659 2.02883 1.4079C2.0454 1.3792 2.06968 1.36056 2.10169 1.35199L2.43586 1.26244C2.46787 1.25387 2.49822 1.25786 2.52692 1.27443C2.55562 1.291 2.57426 1.31529 2.58283 1.3473L2.67237 1.68147C2.68095 1.71348 2.67696 1.74383 2.66039 1.77253C2.64382 1.80123 2.61953 1.81986 2.58752 1.82844L2.25335 1.91798C2.22134 1.92656 2.19099 1.92256 2.16229 1.90599C2.13359 1.88942 2.11496 1.86513 2.10638 1.83313L2.0479 1.61487Z" id="Rectangle" fill="#4A4A4A" fillRule="evenodd" stroke="none" />
            <path d="M2.71855 1.43518L2.68749 1.31927C2.67892 1.28726 2.68291 1.25691 2.69948 1.22821C2.71605 1.19951 2.74034 1.18087 2.77235 1.1723L3.10652 1.08276C3.13853 1.07418 3.16888 1.07818 3.19758 1.09475C3.22627 1.11131 3.24491 1.1356 3.25349 1.16761L3.34303 1.50178C3.35161 1.53379 3.34761 1.56414 3.33104 1.59284C3.31447 1.62154 3.29018 1.64017 3.25818 1.64875L2.924 1.73829C2.892 1.74687 2.86164 1.74287 2.83295 1.7263C2.80425 1.70974 2.78561 1.68545 2.77703 1.65344L2.71855 1.43518Z" id="Rectangle" fill="#4A4A4A" fillRule="evenodd" stroke="none" />
            <path d="M3.38945 1.25549L3.35839 1.13958C3.34982 1.10757 3.35381 1.07722 3.37038 1.04852C3.38695 1.01982 3.41124 1.00119 3.44325 0.99261L3.77742 0.903069C3.80943 0.894493 3.83978 0.898489 3.86848 0.915058C3.89717 0.931625 3.91581 0.955914 3.92439 0.987922L4.01393 1.32209C4.0225 1.3541 4.01851 1.38445 4.00194 1.41315C3.98537 1.44185 3.96108 1.46049 3.92907 1.46906L3.5949 1.5586C3.56289 1.56718 3.53254 1.56318 3.50384 1.54662C3.47515 1.53005 3.45651 1.50576 3.44793 1.47375L3.38945 1.25549Z" id="Rectangle" fill="#4A4A4A" fillRule="evenodd" stroke="none" />
            <path d="M4.06011 1.07568L4.02905 0.95977C4.02047 0.927762 4.02447 0.897409 4.04104 0.868712C4.0576 0.840015 4.08189 0.821377 4.1139 0.812801L4.44807 0.723259C4.48008 0.714684 4.51043 0.71868 4.53913 0.735248C4.56783 0.751815 4.58646 0.776104 4.59504 0.808112L4.68458 1.14228C4.69316 1.17429 4.68916 1.20464 4.67259 1.23334C4.65602 1.26204 4.63174 1.28068 4.59973 1.28925L4.26556 1.37879C4.23355 1.38737 4.2032 1.38338 4.1745 1.36681C4.1458 1.35024 4.12716 1.32595 4.11859 1.29394L4.06011 1.07568Z" id="Rectangle" fill="#4A4A4A" fillRule="evenodd" stroke="none" />
            <path d="M4.73076 0.895994L4.6997 0.780083C4.69112 0.748075 4.69512 0.717722 4.71169 0.689024C4.72826 0.660327 4.75255 0.64169 4.78455 0.633113L5.11873 0.543572C5.15073 0.534996 5.18109 0.538992 5.20978 0.555561C5.23848 0.572128 5.25712 0.596417 5.2657 0.628425L5.35524 0.962596C5.36381 0.994605 5.35982 1.02496 5.34325 1.05366C5.32668 1.08235 5.30239 1.10099 5.27038 1.10957L4.93621 1.19911C4.9042 1.20768 4.87385 1.20369 4.84515 1.18712C4.81645 1.17055 4.79782 1.14626 4.78924 1.11425L4.73076 0.895994Z" id="Rectangle" fill="#4A4A4A" fillRule="evenodd" stroke="none" />
            <path d="M5.40166 0.716306L5.3706 0.600395C5.36202 0.568387 5.36602 0.538034 5.38259 0.509337C5.39916 0.48064 5.42344 0.462002 5.45545 0.453426L5.78962 0.363884C5.82163 0.355309 5.85198 0.359305 5.88068 0.375873C5.90938 0.392441 5.92802 0.416729 5.93659 0.448737L6.02613 0.782908C6.03471 0.814917 6.03071 0.84527 6.01415 0.873968C5.99758 0.902666 5.97329 0.921302 5.94128 0.929878L5.60711 1.01942C5.5751 1.028 5.54475 1.024 5.51605 1.00743C5.48735 0.990863 5.46872 0.966575 5.46014 0.934566L5.40166 0.716306Z" id="Rectangle" fill="#4A4A4A" fillRule="evenodd" stroke="none" />
            <path d="M6.07231 0.536497L6.04125 0.420586C6.03268 0.388578 6.03667 0.358225 6.05324 0.329527C6.06981 0.30083 6.0941 0.282193 6.12611 0.273616L6.46028 0.184075C6.49229 0.175499 6.52264 0.179495 6.55134 0.196064C6.58003 0.212632 6.59867 0.23692 6.60725 0.268928L6.69679 0.603099C6.70536 0.635107 6.70137 0.665461 6.6848 0.694158C6.66823 0.722856 6.64394 0.741493 6.61194 0.750068L6.27776 0.83961C6.24576 0.848186 6.2154 0.844191 6.18671 0.827622C6.15801 0.811054 6.13937 0.786766 6.13079 0.754757L6.07231 0.536497Z" id="Rectangle" fill="#4A4A4A" fillRule="evenodd" stroke="none" />
            <path d="M6.74321 0.356809L6.71215 0.240898C6.70358 0.20889 6.70757 0.178537 6.72414 0.14984C6.74071 0.121143 6.765 0.102505 6.79701 0.0939285L7.13118 0.00438721C7.16319 -0.00418854 7.19354 -0.000192261 7.22223 0.016376C7.25093 0.0329443 7.26957 0.0572324 7.27815 0.0892401L7.36769 0.423411C7.37626 0.45542 7.37227 0.485773 7.3557 0.514471C7.33913 0.543169 7.31484 0.561805 7.28283 0.570381L6.94866 0.659922C6.91665 0.668499 6.8863 0.664503 6.8576 0.647934C6.82891 0.631366 6.81027 0.607078 6.80169 0.575069L6.74321 0.356809Z" id="Rectangle" fill="#4A4A4A" fillRule="evenodd" stroke="none" />
          </g>
          <path d="M8.62031 0.200345L9.35263 0.00411896C9.41665 -0.0130344 9.48245 0.0249564 9.4996 0.0889719L9.58914 0.423144C9.60629 0.487159 9.56831 0.552959 9.50429 0.570113L8.77185 0.76637C8.70783 0.783522 8.64203 0.745533 8.62488 0.681518L8.53537 0.347462C8.51822 0.283445 8.55621 0.217646 8.62022 0.200492L8.62031 0.200345Z" id="Shape" fill="#4A4A4A" fillRule="evenodd" stroke="none" />
        </g>
        <g id="Group" transform="translate(0.93481445 3.1340332)">
          <path d="M0.0354465 2.74951L0.00438812 2.6336C-0.00418854 2.60159 -0.000192261 2.57124 0.016376 2.54254C0.0329443 2.51384 0.0572333 2.49521 0.0892411 2.48663L0.423412 2.39709C0.455421 2.38851 0.485773 2.39251 0.514471 2.40908C0.543169 2.42564 0.561805 2.44993 0.570382 2.48194L0.659923 2.81611C0.668499 2.84812 0.664504 2.87847 0.647934 2.90717C0.631367 2.93587 0.607079 2.9545 0.57507 2.96308L0.240899 3.05262C0.208891 3.0612 0.178538 3.0572 0.14984 3.04063C0.121143 3.02406 0.102505 2.99978 0.0939295 2.96777L0.0354465 2.74951Z" id="Rectangle" fill="#4A4A4A" fillRule="evenodd" stroke="none" />
          <path d="M0.706345 2.56982L0.675287 2.45391C0.66671 2.4219 0.670706 2.39155 0.687274 2.36285C0.703843 2.33416 0.728132 2.31552 0.760139 2.30694L1.09431 2.2174C1.12632 2.20882 1.15667 2.21282 1.18537 2.22939C1.21407 2.24596 1.2327 2.27025 1.24128 2.30225L1.33082 2.63642C1.3394 2.66843 1.3354 2.69878 1.31883 2.72748C1.30227 2.75618 1.27798 2.77482 1.24597 2.78339L0.911798 2.87293C0.87979 2.88151 0.849436 2.87752 0.820738 2.86095C0.792041 2.84438 0.773404 2.82009 0.764828 2.78808L0.706345 2.56982Z" id="Rectangle" fill="#4A4A4A" fillRule="evenodd" stroke="none" />
          <path d="M1.377 2.39001L1.34594 2.2741C1.33736 2.24209 1.34136 2.21174 1.35793 2.18304C1.3745 2.15435 1.39879 2.13571 1.43079 2.12713L1.76497 2.03759C1.79697 2.02901 1.82733 2.03301 1.85602 2.04958C1.88472 2.06615 1.90336 2.09044 1.91193 2.12244L2.00148 2.45661C2.01005 2.48862 2.00606 2.51898 1.98949 2.54767C1.97292 2.57637 1.94863 2.59501 1.91662 2.60358L1.58245 2.69313C1.55044 2.7017 1.52009 2.6977 1.49139 2.68114C1.4627 2.66457 1.44406 2.64028 1.43548 2.60827L1.377 2.39001Z" id="Rectangle" fill="#4A4A4A" fillRule="evenodd" stroke="none" />
          <path d="M2.0479 2.21033L2.01684 2.09441C2.00826 2.06241 2.01226 2.03205 2.02883 2.00336C2.0454 1.97466 2.06968 1.95602 2.10169 1.94744L2.43586 1.8579C2.46787 1.84933 2.49822 1.85332 2.52692 1.86989C2.55562 1.88646 2.57426 1.91075 2.58283 1.94276L2.67237 2.27693C2.68095 2.30894 2.67696 2.33929 2.66039 2.36799C2.64382 2.39668 2.61953 2.41532 2.58752 2.4239L2.25335 2.51344C2.22134 2.52201 2.19099 2.51802 2.16229 2.50145C2.13359 2.48488 2.11496 2.46059 2.10638 2.42859L2.0479 2.21033Z" id="Rectangle" fill="#4A4A4A" fillRule="evenodd" stroke="none" />
          <path d="M2.77232 1.76771L5.99929 0.903045C6.0633 0.885891 6.1291 0.923882 6.14626 0.987898L6.23583 1.32219C6.25298 1.3862 6.21499 1.452 6.15097 1.46916L2.92401 2.33382C2.85999 2.35097 2.79419 2.31298 2.77704 2.24897L2.68747 1.91468C2.67031 1.85066 2.70831 1.78486 2.77232 1.76771L2.77232 1.76771ZM6.3358 0.812924L6.75389 0.700896C6.8179 0.683743 6.88371 0.721734 6.90086 0.785749L6.99043 1.12004C7.00758 1.18405 6.96959 1.24985 6.90558 1.26701L6.48749 1.37903C6.42347 1.39619 6.35767 1.3582 6.34052 1.29418L6.25094 0.959894C6.23379 0.895878 6.27178 0.830076 6.3358 0.812924L6.3358 0.812924Z" id="Shape" fill="#4A4A4A" fillRule="evenodd" stroke="none" />
          <path d="M7.03667 0.873533L7.00561 0.757622C6.99703 0.725614 7.00103 0.695261 7.0176 0.666563C7.03417 0.637866 7.05845 0.619229 7.09046 0.610652L7.42463 0.521111C7.45664 0.512535 7.48699 0.516531 7.51569 0.5331C7.54439 0.549668 7.56303 0.573956 7.5716 0.605964L7.66114 0.940135C7.66972 0.972144 7.66573 1.0025 7.64916 1.03119C7.63259 1.05989 7.6083 1.07853 7.57629 1.0871L7.24212 1.17665C7.21011 1.18522 7.17976 1.18123 7.15106 1.16466C7.12236 1.14809 7.10373 1.1238 7.09515 1.09179L7.03667 0.873533Z" id="Rectangle" fill="#4A4A4A" fillRule="evenodd" stroke="none" />
          <path d="M7.70732 0.693846L7.67626 0.577934C7.66769 0.545927 7.67168 0.515573 7.68825 0.486876C7.70482 0.458179 7.72911 0.439541 7.76112 0.430965L8.09529 0.341423C8.1273 0.332848 8.15765 0.336844 8.18635 0.353412C8.21504 0.36998 8.23368 0.394269 8.24226 0.426276L8.3318 0.760448C8.34037 0.792456 8.33638 0.82281 8.31981 0.851507C8.30324 0.880205 8.27895 0.898841 8.24695 0.907417L7.91277 0.996958C7.88077 1.00554 7.85041 1.00154 7.82172 0.984971C7.79302 0.968402 7.77438 0.944114 7.7658 0.912106L7.70732 0.693846Z" id="Rectangle" fill="#4A4A4A" fillRule="evenodd" stroke="none" />
          <path d="M8.96513 0.356809L8.93408 0.240898C8.9255 0.20889 8.92949 0.178537 8.94606 0.14984C8.96263 0.121143 8.98692 0.102505 9.01893 0.0939286L9.3531 0.00438721C9.38511 -0.00418854 9.41546 -0.000192261 9.44416 0.016376C9.47286 0.0329434 9.49149 0.0572324 9.50007 0.0892401L9.58961 0.423411C9.59819 0.45542 9.59419 0.485772 9.57762 0.514471C9.56105 0.543169 9.53677 0.561805 9.50476 0.570381L9.17059 0.659922C9.13858 0.668499 9.10823 0.664504 9.07953 0.647934C9.05083 0.631366 9.03219 0.607078 9.02362 0.575069L8.96513 0.356809Z" id="Rectangle" fill="#4A4A4A" fillRule="evenodd" stroke="none" />
          <path d="M8.3803 0.567749L8.34675 0.442565C8.3296 0.37855 8.36759 0.312748 8.43161 0.295596L8.76578 0.206054C8.82979 0.188901 8.89559 0.226892 8.91275 0.290907L8.94629 0.416091L8.3803 0.567749L8.3803 0.567749Z" id="a" fill="#4A4A4A" fillRule="evenodd" stroke="none" />
          <path d="M8.91194 0.467773L8.94548 0.592957C8.96264 0.656973 8.92465 0.722775 8.86063 0.739927L8.52646 0.829469C8.46244 0.846622 8.39664 0.808631 8.37949 0.744616L8.34595 0.619432L8.91194 0.467773L8.91194 0.467773Z" id="b" fill="#4A4A4A" fillRule="evenodd" stroke="none" />
        </g>
        <path d="M0.217896 2.7669C0.20859 2.73217 0.212926 2.69924 0.230903 2.6681C0.248881 2.63696 0.275232 2.61674 0.309961 2.60744L9.49116 0.147339C9.52589 0.138033 9.55883 0.142368 9.58996 0.160346C9.6211 0.178323 9.64132 0.204676 9.65062 0.239403C9.65993 0.274133 9.65559 0.307065 9.63762 0.338203C9.61964 0.369339 9.59329 0.389561 9.55856 0.398866L0.377357 2.85896C0.342629 2.86827 0.309696 2.86393 0.278559 2.84596C0.247422 2.82798 0.227202 2.80163 0.217896 2.7669L0.217896 2.7669Z" id="Rectangle" fill="#4A4A4A" fillRule="evenodd" stroke="none" />
        <path d="M0.4485 2.7052L0.448485 2.70514C0.442284 2.682 0.445173 2.66005 0.457152 2.63931C0.469132 2.61856 0.486692 2.60508 0.509833 2.59888L0.871128 2.50207C0.89427 2.49587 0.916216 2.49876 0.936964 2.51074C0.957713 2.52272 0.971187 2.54028 0.977387 2.56342L0.977418 2.56354C0.983619 2.58668 0.980731 2.60863 0.968751 2.62937C0.956772 2.65012 0.939212 2.6636 0.91607 2.6698L0.554775 2.76661C0.531633 2.77281 0.509688 2.76992 0.488939 2.75794C0.468192 2.74596 0.454717 2.7284 0.448516 2.70526L0.4485 2.7052Z" id="Rectangle" fill="#D8D8D8" fillOpacity="0.136" fillRule="evenodd" stroke="none" />
        <path d="M1.17238 2.51123L1.17236 2.51117C1.16616 2.48803 1.16905 2.46608 1.18103 2.44534C1.19301 2.42459 1.21057 2.41111 1.23371 2.40491L1.59501 2.3081C1.61815 2.3019 1.64009 2.30479 1.66084 2.31677C1.68159 2.32875 1.69506 2.34631 1.70126 2.36945L1.7013 2.36957C1.7075 2.39271 1.70461 2.41466 1.69263 2.4354C1.68065 2.45615 1.66309 2.46963 1.63995 2.47583L1.27865 2.57264C1.25551 2.57884 1.23356 2.57595 1.21282 2.56397C1.19207 2.55199 1.17859 2.53443 1.17239 2.51129L1.17238 2.51123Z" id="Rectangle" fill="#D8D8D8" fillOpacity="0.136" fillRule="evenodd" stroke="none" />
        <path d="M1.72926 2.36206L1.72925 2.362C1.72305 2.33886 1.72594 2.31692 1.73791 2.29617C1.74989 2.27542 1.76745 2.26194 1.7906 2.25574L2.15189 2.15893C2.17503 2.15273 2.19698 2.15562 2.21773 2.1676C2.23847 2.17958 2.25195 2.19714 2.25815 2.22028L2.25818 2.2204C2.26438 2.24354 2.26149 2.26549 2.24951 2.28623C2.23753 2.30698 2.21997 2.32046 2.19683 2.32666L1.83554 2.42347C1.81239 2.42967 1.79045 2.42678 1.7697 2.4148C1.74895 2.40282 1.73548 2.38526 1.72928 2.36212L1.72926 2.36206Z" id="Rectangle" fill="#D8D8D8" fillOpacity="0.136" fillRule="evenodd" stroke="none" />
        <path d="M2.2859 2.21289L2.28589 2.21283C2.27969 2.18969 2.28258 2.16775 2.29455 2.147C2.30653 2.12625 2.32409 2.11277 2.34724 2.10657L2.70853 2.00976C2.73167 2.00356 2.75362 2.00645 2.77437 2.01843C2.79511 2.03041 2.80859 2.04797 2.81479 2.07111L2.81482 2.07123C2.82102 2.09437 2.81813 2.11632 2.80615 2.13706C2.79417 2.15781 2.77661 2.17129 2.75347 2.17749L2.39218 2.2743C2.36904 2.2805 2.34709 2.27761 2.32634 2.26563C2.30559 2.25365 2.29212 2.23609 2.28592 2.21295L2.2859 2.21289Z" id="Rectangle" fill="#D8D8D8" fillOpacity="0.136" fillRule="evenodd" stroke="none" />
        <path d="M2.84279 2.0636L2.84277 2.06354C2.83657 2.0404 2.83946 2.01845 2.85144 1.9977C2.86342 1.97696 2.88098 1.96348 2.90412 1.95728L3.26542 1.86047C3.28856 1.85427 3.3105 1.85716 3.33125 1.86914C3.352 1.88112 3.36547 1.89868 3.37168 1.92182L3.37171 1.92194C3.37791 1.94508 3.37502 1.96702 3.36304 1.98777C3.35106 2.00852 3.3335 2.022 3.31036 2.0282L2.94906 2.12501C2.92592 2.13121 2.90398 2.12832 2.88323 2.11634C2.86248 2.10436 2.849 2.0868 2.8428 2.06366L2.84279 2.0636Z" id="Rectangle" fill="#D8D8D8" fillOpacity="0.136" fillRule="evenodd" stroke="none" />
        <path d="M3.53859 1.8772L3.53857 1.87714C3.53237 1.854 3.53526 1.83205 3.54724 1.8113C3.55922 1.79056 3.57678 1.77708 3.59992 1.77088L3.96122 1.67407C3.98436 1.66787 4.0063 1.67076 4.02705 1.68274C4.0478 1.69472 4.06127 1.71228 4.06747 1.73542L4.06751 1.73554C4.07371 1.75868 4.07082 1.78062 4.05884 1.80137C4.04686 1.82212 4.0293 1.83559 4.00616 1.84179L3.64486 1.9386C3.62172 1.9448 3.59978 1.94192 3.57903 1.92994C3.55828 1.91796 3.5448 1.9004 3.5386 1.87726L3.53859 1.8772Z" id="Rectangle" fill="#D8D8D8" fillOpacity="0.136" fillRule="evenodd" stroke="none" />
        <path d="M4.09547 1.72803L4.09546 1.72797C4.08926 1.70483 4.09214 1.68288 4.10412 1.66213C4.1161 1.64139 4.13367 1.62791 4.15681 1.62171L4.5181 1.5249C4.54124 1.5187 4.56319 1.52159 4.58394 1.53357C4.60468 1.54555 4.61816 1.56311 4.62436 1.58625L4.62439 1.58637C4.63059 1.60951 4.6277 1.63145 4.61572 1.6522C4.60374 1.67295 4.58619 1.68642 4.56304 1.69263L4.20175 1.78943C4.17861 1.79563 4.15666 1.79275 4.13591 1.78077C4.11516 1.76879 4.10169 1.75123 4.09549 1.72809L4.09547 1.72803Z" id="Rectangle" fill="#D8D8D8" fillOpacity="0.136" fillRule="evenodd" stroke="none" />
        <path d="M4.65211 1.57873L4.6521 1.57868C4.6459 1.55554 4.64878 1.53359 4.66077 1.51284C4.67274 1.49209 4.69031 1.47862 4.71345 1.47242L5.07474 1.37561C5.09788 1.36941 5.11983 1.3723 5.14058 1.38428C5.16132 1.39626 5.1748 1.41382 5.181 1.43696L5.18103 1.43707C5.18723 1.46022 5.18434 1.48216 5.17236 1.50291C5.16039 1.52366 5.14283 1.53713 5.11968 1.54333L4.75839 1.64014C4.73525 1.64634 4.7133 1.64345 4.69255 1.63147C4.6718 1.6195 4.65833 1.60194 4.65213 1.57879L4.65211 1.57873Z" id="Rectangle" fill="#D8D8D8" fillOpacity="0.136" fillRule="evenodd" stroke="none" />
        <path d="M5.209 1.42956L5.20898 1.42951C5.20278 1.40637 5.20567 1.38442 5.21765 1.36367C5.22963 1.34292 5.24719 1.32945 5.27033 1.32325L5.63163 1.22644C5.65477 1.22024 5.67671 1.22313 5.69746 1.23511C5.71821 1.24709 5.73168 1.26465 5.73789 1.28779L5.73792 1.2879C5.74412 1.31105 5.74123 1.33299 5.72925 1.35374C5.71727 1.37449 5.69971 1.38796 5.67657 1.39416L5.31527 1.49097C5.29213 1.49717 5.27019 1.49428 5.24944 1.4823C5.22869 1.47033 5.21521 1.45277 5.20901 1.42962L5.209 1.42956Z" id="Rectangle" fill="#D8D8D8" fillOpacity="0.136" fillRule="evenodd" stroke="none" />
        <path d="M5.90504 1.24316L5.90503 1.24311C5.89883 1.21996 5.90171 1.19802 5.91369 1.17727C5.92567 1.15652 5.94324 1.14305 5.96638 1.13685L6.32767 1.04004C6.35081 1.03384 6.37276 1.03673 6.39351 1.0487C6.41425 1.06068 6.42773 1.07824 6.43393 1.10139L6.43396 1.1015C6.44016 1.12464 6.43727 1.14659 6.42529 1.16734C6.41332 1.18809 6.39576 1.20156 6.37261 1.20776L6.01132 1.30457C5.98818 1.31077 5.96623 1.30788 5.94548 1.2959C5.92473 1.28392 5.91126 1.26636 5.90506 1.24322L5.90504 1.24316Z" id="Rectangle" fill="#D8D8D8" fillOpacity="0.136" fillRule="evenodd" stroke="none" />
        <path d="M6.46168 1.09399L6.46167 1.09394C6.45547 1.07079 6.45835 1.04885 6.47034 1.0281C6.48231 1.00735 6.49988 0.993878 6.52302 0.987677L6.88431 0.890868C6.90745 0.884667 6.9294 0.887556 6.95015 0.899535C6.9709 0.911515 6.98437 0.929075 6.99057 0.952216L6.9906 0.952333C6.9968 0.975474 6.99391 0.99742 6.98193 1.01817C6.96996 1.03892 6.9524 1.05239 6.92925 1.05859L6.56796 1.1554C6.54482 1.1616 6.52287 1.15871 6.50212 1.14673C6.48137 1.13475 6.4679 1.11719 6.4617 1.09405L6.46168 1.09399Z" id="Rectangle" fill="#D8D8D8" fillOpacity="0.136" fillRule="evenodd" stroke="none" />
        <path d="M7.01857 0.944701L7.01855 0.944644C7.01235 0.921502 7.01524 0.899557 7.02722 0.878808C7.0392 0.85806 7.05676 0.844586 7.0799 0.838385L7.4412 0.741576C7.46434 0.735375 7.48628 0.738264 7.50703 0.750243C7.52778 0.762223 7.54125 0.779783 7.54745 0.802924L7.54749 0.803041C7.55369 0.826182 7.5508 0.848128 7.53882 0.868876C7.52684 0.889624 7.50928 0.903099 7.48614 0.9093L7.12484 1.00611C7.1017 1.01231 7.07976 1.00942 7.05901 0.997441C7.03826 0.985462 7.02479 0.967902 7.01858 0.94476L7.01857 0.944701Z" id="Rectangle" fill="#D8D8D8" fillOpacity="0.136" fillRule="evenodd" stroke="none" />
        <path d="M7.71437 0.7583L7.71435 0.758242C7.70815 0.735101 7.71104 0.713155 7.72302 0.692407C7.735 0.671659 7.75256 0.658184 7.7757 0.651983L8.137 0.555174C8.16014 0.548973 8.18208 0.551863 8.20283 0.563842C8.22358 0.575821 8.23706 0.593381 8.24326 0.616523L8.24329 0.616639C8.24949 0.639781 8.2466 0.661726 8.23462 0.682474C8.22264 0.703223 8.20508 0.716698 8.18194 0.722898L7.82064 0.819708C7.7975 0.825908 7.77556 0.823019 7.75481 0.811039C7.73406 0.79906 7.72059 0.781501 7.71438 0.758359L7.71437 0.7583Z" id="Rectangle" fill="#D8D8D8" fillOpacity="0.136" fillRule="evenodd" stroke="none" />
        <path d="M8.27125 0.60913L8.27124 0.609073C8.26504 0.585931 8.26793 0.563985 8.27991 0.543237C8.29188 0.522489 8.30945 0.509014 8.33259 0.502813L8.69388 0.406004C8.71702 0.399803 8.73897 0.402693 8.75972 0.414672C8.78047 0.426651 8.79394 0.444211 8.80014 0.467353L8.80017 0.467469C8.80637 0.490611 8.80348 0.512556 8.7915 0.533304C8.77953 0.554053 8.76197 0.567528 8.73882 0.573729L8.37753 0.670538C8.35439 0.676739 8.33244 0.673849 8.31169 0.661869C8.29094 0.649891 8.27747 0.632331 8.27127 0.609189L8.27125 0.60913Z" id="Rectangle" fill="#D8D8D8" fillOpacity="0.136" fillRule="evenodd" stroke="none" />
        <path d="M8.8279 0.459838L8.82788 0.459781C8.82168 0.436639 8.82457 0.414693 8.83655 0.393945C8.84853 0.373197 8.86609 0.359722 8.88923 0.353521L9.25052 0.256712C9.27367 0.250511 9.29561 0.253401 9.31636 0.26538C9.33711 0.277359 9.35058 0.294919 9.35678 0.318061L9.35681 0.318177C9.36301 0.341319 9.36012 0.363264 9.34815 0.384012C9.33617 0.404761 9.31861 0.418236 9.29546 0.424437L8.93417 0.521246C8.91103 0.527447 8.88908 0.524557 8.86833 0.512577C8.84758 0.500599 8.83411 0.483039 8.82791 0.459897L8.8279 0.459838Z" id="Rectangle" fill="#D8D8D8" fillOpacity="0.136" fillRule="evenodd" stroke="none" />
      </g>
      <path d="M17.1601 18.9601C17.1338 18.9601 17.1087 18.9645 17.0834 18.9677C17.0789 18.9497 17.0745 18.9316 17.0695 18.9136C17.3332 18.8034 17.4825 18.5225 17.4264 18.2422C17.3703 17.962 17.1243 17.7603 16.8385 17.7601C16.7075 17.7605 16.5803 17.8042 16.4766 17.8844C16.4633 17.8708 16.4499 17.8574 16.4364 17.8441C16.5148 17.741 16.5574 17.6151 16.5577 17.4856C16.5575 17.2006 16.3569 16.9551 16.0777 16.8981C15.7984 16.8411 15.5176 16.9884 15.4058 17.2505C15.3881 17.2455 15.3702 17.2413 15.3524 17.2367C15.3557 17.2114 15.3601 17.1863 15.3601 17.1601C15.3601 16.8287 15.0915 16.5601 14.7601 16.5601C14.4287 16.5601 14.1601 16.8287 14.1601 17.1601C14.1601 17.1863 14.1645 17.2114 14.1678 17.2367C14.15 17.2413 14.1321 17.2455 14.1144 17.2505C14.0029 16.9879 13.7219 16.8401 13.4423 16.8971C13.1628 16.9542 12.9621 17.2003 12.9625 17.4856C12.9625 17.6206 13.0086 17.7437 13.0838 17.8441C12.6378 18.2799 12.3601 18.8872 12.3601 19.5601C12.3601 20.8856 13.4346 21.9601 14.7601 21.9601C15.8808 21.9601 16.8193 21.1909 17.0834 20.1524C17.1087 20.1556 17.1338 20.1601 17.1601 20.1601C17.4915 20.1601 17.7601 19.8914 17.7601 19.5601C17.7601 19.2287 17.4915 18.9601 17.1601 18.9601" id="Shape" fill="#44D860" fillRule="evenodd" stroke="none" />
      <path d="M9.96021 14.7601L14.7602 14.7601L14.7602 12.3601L9.96021 12.3601L9.96021 14.7601Z" id="Shape" fill="#3ECC5F" fillRule="evenodd" stroke="none" />
      <path d="M15.9601 13.8601C16.1257 13.8601 16.2601 13.7258 16.2601 13.5601C16.2601 13.3944 16.1257 13.2601 15.9601 13.2601C15.947 13.2601 15.9344 13.2624 15.9218 13.264C15.9194 13.255 15.9173 13.246 15.9148 13.237C16.0465 13.1817 16.121 13.0413 16.0929 12.9013C16.0649 12.7613 15.9421 12.6604 15.7993 12.6601C15.731 12.6601 15.6687 12.6838 15.6183 12.7223C15.6117 12.7154 15.605 12.7087 15.5981 12.7021C15.6358 12.6521 15.6589 12.5904 15.6589 12.5228C15.6589 12.3804 15.5586 12.2575 15.4189 12.229C15.2792 12.2005 15.1388 12.2741 15.0829 12.4053C14.9778 12.3756 14.8692 12.3604 14.7601 12.3601C14.0974 12.3601 13.5601 12.8975 13.5601 13.5601C13.5601 14.2228 14.0974 14.7601 14.7601 14.7601C14.8721 14.7601 14.98 14.7436 15.0829 14.7149C15.1387 14.846 15.2791 14.9197 15.4188 14.8912C15.5585 14.8628 15.6588 14.7399 15.6589 14.5974C15.6589 14.5298 15.6358 14.4682 15.5981 14.4181C15.605 14.4115 15.6117 14.4048 15.6183 14.398C15.6687 14.4365 15.731 14.4601 15.7993 14.4601C15.9422 14.4601 16.0653 14.3592 16.0934 14.219C16.1215 14.0789 16.0467 13.9384 15.9148 13.8833C15.9173 13.8744 15.9194 13.8653 15.9218 13.8563C15.9344 13.8578 15.947 13.8601 15.9601 13.8601" id="Shape" fill="#44D860" fillRule="evenodd" stroke="none" />
      <path d="M17.1601 5.01009C17.1409 5.01009 17.1205 5.00769 17.1013 5.00409C17.082 5.00034 17.0631 4.99471 17.0449 4.98729C17.0269 4.98009 17.0101 4.97049 16.9932 4.95969C16.9776 4.94889 16.9621 4.93569 16.9476 4.92249C16.9345 4.90809 16.9213 4.89369 16.9105 4.87689C16.8997 4.86009 16.8901 4.84329 16.8828 4.82529C16.8681 4.78866 16.8604 4.74957 16.8601 4.71009C16.8601 4.69089 16.8625 4.67049 16.8661 4.65129C16.8697 4.63209 16.8757 4.61409 16.8828 4.59489C16.8901 4.57689 16.8997 4.56009 16.9105 4.54329C16.9213 4.52769 16.9345 4.51209 16.9476 4.49769C16.9621 4.48449 16.9776 4.47129 16.9932 4.46049C17.0101 4.44969 17.0269 4.44009 17.0449 4.43289C17.0628 4.42569 17.0821 4.41969 17.1013 4.41609C17.1397 4.40769 17.1793 4.40769 17.2189 4.41609C17.238 4.41969 17.2573 4.42569 17.2753 4.43289C17.2932 4.44009 17.3101 4.44969 17.3269 4.46049C17.3425 4.47129 17.358 4.48449 17.3725 4.49769C17.3857 4.51209 17.3989 4.52769 17.4097 4.54329C17.4205 4.56009 17.4301 4.57689 17.4373 4.59489C17.4445 4.61409 17.4505 4.63209 17.4541 4.65129C17.4576 4.67049 17.4601 4.69089 17.4601 4.71009C17.4601 4.78929 17.4276 4.86729 17.3725 4.92249C17.358 4.93569 17.3425 4.94889 17.3269 4.95969C17.3101 4.97049 17.2932 4.98009 17.2753 4.98729C17.2387 5.00221 17.1996 5.00995 17.1601 5.01009M19.56 4.86007C19.4808 4.86007 19.404 4.82767 19.3475 4.77247C19.3342 4.75808 19.3218 4.74285 19.3104 4.72687C19.2996 4.71007 19.29 4.69327 19.2827 4.67527C19.268 4.63863 19.2603 4.59955 19.26 4.56007C19.26 4.48087 19.2924 4.40407 19.3475 4.34767C19.362 4.33447 19.3775 4.32127 19.3931 4.31047C19.41 4.29967 19.4268 4.29007 19.4448 4.28287C19.4627 4.27567 19.482 4.26967 19.5012 4.26607C19.5396 4.25767 19.5804 4.25767 19.6188 4.26607C19.6379 4.26967 19.6572 4.27567 19.6752 4.28287C19.6931 4.29007 19.71 4.29967 19.7268 4.31047C19.7424 4.32127 19.7579 4.33447 19.7724 4.34767C19.8275 4.40407 19.86 4.48087 19.86 4.56007C19.86 4.57927 19.8575 4.59967 19.854 4.61887C19.8504 4.63807 19.8444 4.65727 19.8372 4.67527C19.8288 4.69327 19.8204 4.71007 19.8096 4.72687C19.7988 4.74247 19.7856 4.75807 19.7724 4.77247C19.7579 4.78567 19.7424 4.79887 19.7268 4.80967C19.71 4.82047 19.6931 4.83007 19.6752 4.83727C19.6386 4.85219 19.5995 4.85993 19.56 4.86007" id="Shape" fill="#000000" fillRule="evenodd" stroke="none" />
    </g>
  </g>
</svg>