<svg width="24px" height="24px" viewBox="0 0 41 41" version="1.1"
  xmlns:xlink="http://www.w3.org/1999/xlink"
  xmlns="http://www.w3.org/2000/svg">
  <g id="Grupo-2">
    <g id="Grupo" transform="translate(5.6225586 0)">
      <path d="M19.2753 0L24.0827 2.72095L5.15062 13.4364L0.343262 10.7154L19.2753 0L19.2753 0Z" id="Forma" fill="#172B4D" stroke="none" />
      <path d="M24.2769 3.29224L5.46402 13.9354L5.46338 19.3203L24.2763 8.67716L24.2769 3.29224L24.2769 3.29224Z" id="Forma" fill="#172B4D" stroke="none" />
      <path d="M16.7116 13.8013L5.50352 20.1422L5.50293 25.5273L16.711 19.1863L16.7116 13.8013L16.7116 13.8013Z" id="Forma" fill="#172B4D" stroke="none" />
      <path d="M12.4148 22.3143L5.47672 26.2396L5.47607 31.6248L12.4142 27.6995L12.4148 22.3143L12.4148 22.3143Z" id="Forma" fill="#172B4D" stroke="none" />
      <path d="M0.0018638 11.2346L4.8375 13.9702L4.83564 19.3564L0 16.6208L0.0018638 11.2346L0.0018638 11.2346Z" id="Forma" fill="#172B4D" stroke="none" />
      <path d="M0.0477622 17.4042L4.82474 20.1066L4.82288 25.4928L0.0458984 22.7904L0.0477622 17.4042L0.0477622 17.4042Z" id="Forma" fill="#172B4D" stroke="none" />
      <path d="M0.045932 23.5366L4.82452 26.24L4.82253 31.9814L0.0439453 29.2781L0.045932 23.5366L0.045932 23.5366Z" id="Forma" fill="#172B4D" stroke="none" />
      <path d="M10.6941 41L5.88672 38.279L24.6039 27.6852L29.4112 30.4061L10.6941 41L10.6941 41Z" id="Forma" fill="#172B4D" stroke="none" />
      <path d="M5.50586 37.8134L24.2905 27.1862L24.2911 21.8013L5.50645 32.4285L5.50586 37.8134L5.50586 37.8134Z" id="Forma" fill="#172B4D" stroke="none" />
      <path d="M13.0425 27.3204L24.2505 20.9794L24.2512 15.5944L13.0431 21.9353L13.0425 27.3204L13.0425 27.3204Z" id="Forma" fill="#172B4D" stroke="none" />
      <path d="M17.3394 18.8072L24.2774 14.8819L24.278 9.49683L17.34 13.4221L17.3394 18.8072L17.3394 18.8072Z" id="Forma" fill="#172B4D" stroke="none" />
      <path d="M29.7531 29.9231L24.9175 27.1875L24.9193 21.8013L29.755 24.5368L29.7531 29.9231L29.7531 29.9231Z" id="Forma" fill="#172B4D" stroke="none" />
      <path d="M29.7072 23.7189L24.9302 21.0164L24.932 15.6302L29.709 18.3326L29.7072 23.7189L29.7072 23.7189Z" id="Forma" fill="#172B4D" stroke="none" />
      <path d="M29.7088 17.5864L24.9302 14.883L24.9321 9.24475L29.7107 11.9481L29.7088 17.5864L29.7088 17.5864Z" id="Forma" fill="#172B4D" stroke="none" />
    </g>
    <path d="M0 0L41 0L41 41L0 41L0 0Z" id="Rectángulo" fill="none" fill-rule="evenodd" stroke="none" />
  </g>
</svg>