<?xml version="1.0" standalone="no"?>
<!DOCTYPE svg PUBLIC "-//W3C//DTD SVG 20010904//EN"
 "http://www.w3.org/TR/2001/REC-SVG-20010904/DTD/svg10.dtd">
<svg version="1.0" xmlns="http://www.w3.org/2000/svg"
 width="1024.000000pt" height="1024.000000pt" viewBox="0 0 1024.000000 1024.000000"
 preserveAspectRatio="xMidYMid meet">

<g transform="translate(0.000000,1024.000000) scale(0.100000,-0.100000)"
fill="#000000" stroke="none">
<path d="M4055 6834 c-119 -18 -165 -42 -740 -379 -49 -29 -198 -115 -330
-191 -320 -184 -613 -353 -882 -509 -195 -113 -239 -145 -202 -145 6 0 7 6 3
13 -5 7 0 6 11 -3 17 -14 18 -13 13 2 -5 11 0 18 13 21 10 3 17 1 13 -4 -7
-12 3 -11 26 1 16 8 18 8 14 -5 -4 -8 -1 -15 6 -15 6 0 8 -5 5 -10 -5 -8 -11
-7 -20 0 -9 7 -23 9 -37 4 -38 -13 -51 -13 -70 -3 -12 6 -18 6 -18 -1 0 -5 -3
-9 -7 -8 -5 2 -8 -1 -8 -7 0 -5 4 -9 8 -7 5 1 6 -2 3 -7 -3 -4 6 -9 19 -10 50
-3 52 -4 47 -28 -5 -25 -30 -31 -51 -10 -11 10 -12 9 -6 -3 7 -12 6 -13 -6 -3
-11 9 -20 8 -39 -2 -14 -7 -24 -16 -22 -19 6 -15 1 -26 -12 -26 -8 0 -23 -13
-32 -29 -10 -17 -21 -28 -24 -26 -4 3 -5 -7 -2 -22 4 -23 3 -25 -19 -20 -13 4
-30 7 -37 7 -9 0 -11 7 -6 23 6 20 4 20 -20 -6 -14 -15 -26 -37 -26 -48 0 -10
-4 -19 -8 -19 -14 0 -29 -56 -21 -78 11 -30 4 -215 -9 -238 -9 -15 -10 -4 -7
46 2 36 7 81 10 100 4 25 3 30 -4 15 -8 -19 -9 -19 -13 5 -4 16 -6 7 -8 -25
-5 -78 1 -147 15 -182 7 -17 11 -34 8 -37 -13 -13 70 -156 124 -212 93 -97
110 -109 156 -113 5 -1 5 -5 2 -11 -4 -6 1 -7 11 -3 12 4 15 3 10 -5 -5 -8 -1
-10 10 -5 13 5 10 10 -17 25 -31 18 -24 18 17 2 14 -6 14 -4 3 14 -7 12 -10
24 -7 28 8 7 60 -31 58 -43 -1 -4 4 -9 11 -12 8 -2 10 2 6 13 -4 10 -1 16 8
16 8 0 15 -4 15 -10 0 -5 12 -21 26 -35 23 -23 24 -27 10 -41 -12 -11 -20 -12
-33 -5 -17 10 -16 10 2 11 16 0 17 2 5 10 -9 6 -17 5 -22 -2 -9 -16 -47 30
-48 57 0 15 -2 17 -9 6 -5 -7 -6 -22 -3 -34 4 -15 2 -18 -8 -12 -8 5 -11 4 -6
-3 4 -6 13 -9 21 -5 8 3 15 1 15 -4 0 -6 17 -18 37 -29 21 -10 65 -37 99 -59
115 -74 172 -103 186 -94 7 5 22 6 32 3 14 -5 18 -2 13 8 -7 19 28 16 69 -5
28 -14 28 -15 6 -28 -16 -10 -18 -16 -10 -26 8 -10 6 -13 -6 -13 -9 0 -16 5
-16 10 0 6 -8 10 -17 10 -11 0 0 -12 26 -30 34 -22 48 -26 58 -18 11 9 12 7 6
-8 -6 -17 -5 -17 10 -6 8 8 13 21 10 30 -4 13 -3 14 5 3 5 -7 15 -10 21 -7 7
5 10 2 9 -6 -2 -8 6 -13 20 -12 15 0 22 -5 22 -18 0 -14 -6 -18 -22 -16 -13 2
-22 9 -20 16 1 8 -2 11 -9 6 -8 -4 -9 -3 -5 4 4 7 3 12 -2 12 -21 0 -20 -15 4
-37 32 -30 84 -57 84 -43 0 5 -8 10 -17 10 -15 0 -16 2 -3 10 21 14 30 12 30
-5 0 -13 4 -14 22 -4 13 7 29 19 37 27 13 12 16 12 23 -7 4 -11 10 -21 13 -21
4 0 3 6 -1 13 -4 6 1 5 12 -4 10 -9 28 -16 39 -15 16 2 20 -4 21 -27 1 -16 -2
-24 -6 -18 -10 17 -86 19 -82 3 2 -10 -6 -8 -28 4 l-30 18 25 14 c14 7 25 17
25 22 0 6 -16 0 -35 -12 l-34 -23 40 -24 c42 -25 109 -34 147 -20 17 7 21 6
16 -3 -5 -8 0 -9 14 -6 12 4 22 3 22 -2 0 -4 -11 -11 -24 -14 -13 -3 -32 -8
-43 -12 -10 -3 -7 1 7 10 16 10 20 15 10 16 -9 0 -21 -5 -27 -11 -8 -8 -13 -8
-17 0 -4 6 -17 11 -29 11 -17 -1 -13 -5 17 -20 22 -11 42 -24 46 -29 3 -5 19
-12 35 -15 24 -5 26 -4 10 3 -15 7 -16 10 -5 11 32 4 55 -3 68 -21 12 -18 39
-28 28 -11 -3 4 12 8 32 9 25 0 31 -2 18 -6 -14 -6 -16 -10 -7 -15 6 -4 18 -3
25 3 11 9 14 6 14 -14 l-1 -25 -34 21 c-27 17 -37 19 -43 9 -6 -9 -9 -9 -15 0
-4 6 -14 9 -22 6 -8 -3 -11 -2 -8 3 9 15 -15 25 -28 12 -9 -9 -8 -11 6 -5 12
4 17 2 15 -6 -2 -7 7 -16 19 -19 13 -3 31 -13 40 -21 10 -9 39 -28 66 -43 38
-22 51 -26 65 -17 16 11 16 11 -1 6 -19 -6 -107 39 -107 55 0 4 21 -6 46 -23
34 -22 48 -28 57 -19 8 8 6 11 -8 11 -14 0 -16 3 -8 11 9 9 15 8 25 -2 17 -19
22 -49 7 -49 -7 0 -2 -9 10 -19 13 -11 28 -18 35 -15 7 3 20 -4 30 -15 10 -11
24 -17 32 -14 10 3 12 0 9 -10 -4 -8 0 -17 8 -20 18 -7 44 9 33 20 -5 4 -11 2
-13 -5 -3 -6 -9 -9 -15 -6 -6 4 -5 10 3 15 10 6 7 10 -11 18 -14 5 -18 10 -10
10 8 0 26 -8 40 -18 21 -17 22 -21 10 -37 -9 -11 -10 -15 -2 -10 6 4 12 2 12
-3 0 -14 33 -14 47 0 6 6 17 8 24 3 20 -12 60 -14 53 -2 -4 6 2 6 15 -1 23
-13 27 -26 10 -36 -5 -4 -20 1 -31 12 -15 13 -22 15 -25 6 -3 -7 -9 -13 -14
-13 -6 0 -8 4 -4 9 10 17 -12 21 -31 6 -19 -15 -19 -15 0 -8 14 5 17 3 11 -7
-5 -8 -4 -11 2 -7 6 4 16 0 23 -8 17 -20 120 -75 120 -64 0 5 7 9 15 9 8 0 15
4 15 8 0 5 13 7 29 4 16 -2 37 1 48 6 16 9 19 7 21 -18 2 -24 -1 -27 -18 -23
-11 3 -23 9 -26 14 -3 5 -17 9 -31 9 -15 0 -23 -3 -20 -7 4 -3 1 -13 -5 -22
-7 -9 -9 -13 -4 -9 4 4 26 -7 49 -23 22 -16 46 -29 54 -29 7 0 13 -4 13 -10 0
-5 7 -6 17 -3 11 4 14 3 9 -5 -5 -8 -1 -10 10 -5 12 4 15 3 10 -5 -8 -13 39
-36 55 -26 5 3 9 -3 9 -12 0 -16 1 -16 18 -1 15 14 19 15 19 2 0 -8 -4 -12 -9
-9 -4 3 -8 1 -8 -4 0 -4 15 -16 33 -26 48 -25 73 -40 93 -56 15 -11 16 -11 7
0 -10 11 -9 16 5 26 19 15 66 19 58 5 -3 -5 13 -12 37 -15 34 -6 39 -9 25 -17
-10 -6 -18 -17 -18 -25 0 -11 -4 -12 -19 -4 -11 5 -28 10 -38 10 -11 0 -3 -8
20 -20 21 -11 43 -17 49 -14 7 4 8 3 4 -4 -11 -19 9 -14 38 9 22 17 27 18 32
6 7 -20 142 -20 165 -1 15 13 81 15 73 2 -8 -13 18 -20 52 -13 29 5 34 10 29
25 -12 37 69 68 100 39 6 -6 -2 -7 -22 -3 -35 7 -71 -19 -65 -47 2 -11 -7 -19
-30 -24 -50 -11 -68 -12 -63 -4 3 4 -2 10 -11 13 -22 8 -24 8 -18 -7 3 -9 -12
-13 -61 -15 -37 -1 -65 3 -65 8 0 6 -5 10 -11 10 -8 0 -9 -4 0 -13 6 -8 8 -16
5 -20 -3 -3 4 -3 17 0 15 4 20 3 15 -5 -5 -8 1 -12 14 -12 12 0 18 4 15 10 -4
6 12 10 42 9 51 -1 63 1 131 20 36 10 43 16 39 32 -3 10 -1 19 3 19 5 0 17 3
27 6 16 6 15 5 -2 -9 -11 -8 -17 -19 -13 -23 5 -4 16 0 26 9 10 10 21 15 23
13 2 -3 15 3 28 13 18 14 21 20 11 26 -9 5 -11 4 -6 -3 4 -7 2 -12 -3 -12 -6
0 -11 4 -11 8 0 5 -10 14 -22 20 -19 9 -20 11 -5 11 10 1 31 -6 46 -14 25 -12
31 -12 40 -1 9 11 8 18 -4 29 -14 14 -13 16 5 22 11 3 20 11 20 16 0 13 -18
11 -23 -3 -2 -7 -8 -10 -12 -6 -4 4 2 16 13 28 11 12 18 28 16 34 -3 7 4 24
15 37 l21 24 6 -23 c4 -13 13 -21 22 -20 8 2 17 -3 19 -10 3 -7 -1 -11 -7 -10
-7 2 -14 -3 -15 -10 -2 -7 -1 -8 2 -2 2 5 9 8 13 5 9 -6 32 29 36 54 2 8 7 17
13 20 30 19 41 169 15 196 -16 15 -19 55 -4 55 5 0 12 -17 16 -37 7 -36 8 -37
15 -13 5 15 6 2 4 -35 -4 -45 -3 -53 4 -32 15 46 8 226 -9 237 -19 11 -20 9
-13 -18 3 -12 9 -19 14 -16 12 7 11 -7 -1 -26 -9 -13 -10 -13 -11 0 -1 8 -5 2
-8 -15 -4 -17 -7 16 -6 75 2 95 0 109 -23 150 -14 25 -28 49 -32 53 -8 10 -5
-60 5 -89 4 -13 2 -25 -5 -29 -20 -13 -29 9 -21 53 7 33 5 42 -6 42 -10 0 -10
6 4 27 10 15 12 24 6 20 -8 -5 -13 -3 -13 4 0 6 -8 18 -17 26 -11 9 -12 12 -3
7 8 -4 4 5 -9 19 -13 14 -26 25 -30 24 -3 -1 -18 9 -32 21 -14 13 -55 40 -91
61 -50 29 -70 36 -87 29 -13 -4 -36 -6 -53 -3 -17 3 -27 2 -24 -4 4 -5 -3 -7
-16 -3 -20 5 -21 6 -3 12 11 4 14 9 8 13 -6 4 -22 -3 -37 -14 -23 -18 -28 -19
-41 -5 -20 20 -19 25 5 19 12 -3 20 0 20 6 0 7 4 10 9 7 5 -4 6 4 3 16 -5 22
-4 22 28 -5 25 -21 40 -27 59 -22 20 4 22 3 11 -5 -18 -12 -3 -12 25 0 15 6
16 9 4 9 -9 1 -34 14 -55 29 -57 41 -69 47 -59 33 6 -10 3 -11 -14 -2 -11 7
-21 14 -21 17 0 3 5 2 10 -1 6 -3 10 -4 10 -1 0 7 -60 38 -61 31 -5 -20 -3
-31 6 -38 6 -5 4 -7 -5 -4 -9 2 -14 14 -13 30 2 23 -5 31 -50 52 -29 14 -44
20 -35 12 10 -8 15 -17 11 -21 -4 -4 1 -4 11 0 25 10 13 -12 -16 -27 -17 -9
-19 -8 -14 9 4 11 0 24 -9 32 -8 7 -13 16 -10 20 5 8 -89 71 -110 74 -6 1 -24
11 -40 22 -71 49 -102 64 -102 50 0 -8 6 -12 13 -9 6 2 14 0 17 -4 7 -11 -34
-11 -51 0 -10 7 -10 12 -1 23 6 8 9 15 5 15 -3 1 -9 2 -13 3 -5 1 -26 13 -48
27 -58 37 -88 53 -81 41 3 -6 0 -13 -6 -16 -7 -2 -4 -4 7 -3 11 1 20 -2 20 -8
0 -12 -48 -16 -65 -5 -8 5 -10 15 -5 26 5 13 9 15 12 7 7 -18 23 -16 23 2 0 8
-7 15 -15 15 -8 0 -15 3 -15 8 0 4 -9 13 -21 20 -15 10 -19 10 -14 1 5 -7 3
-10 -6 -7 -8 3 -13 12 -11 19 2 8 0 11 -4 6 -4 -4 -18 3 -31 15 -13 12 -23 16
-23 10 0 -7 -5 -12 -11 -12 -6 0 -9 7 -6 14 4 10 1 13 -9 9 -15 -6 -19 -19 -6
-26 4 -2 1 -2 -6 0 -8 1 -10 -2 -6 -9 5 -8 2 -9 -11 -4 -15 5 -16 4 -5 -8 11
-14 14 -14 27 -1 16 17 38 20 28 5 -8 -13 8 -13 22 1 7 7 12 6 16 -4 4 -11 -2
-14 -24 -13 -16 1 -29 -1 -29 -5 0 -9 -33 -4 -56 9 -15 8 -15 10 2 23 23 17
54 56 37 45 -7 -4 -13 -3 -13 2 0 6 -11 13 -25 16 -14 4 -23 11 -20 15 3 5 -9
14 -25 20 -17 5 -30 14 -30 18 0 4 44 32 98 62 53 30 176 100 272 156 160 93
270 157 540 313 52 30 131 75 175 100 203 113 308 248 342 437 27 153 -13 309
-114 447 -58 80 -198 170 -308 197 -49 13 -169 21 -210 15z m-1865 -1179 c23
-13 21 -14 -30 -9 -30 3 -67 6 -82 7 -14 1 -24 5 -21 10 8 12 107 7 133 -8z
m56 -10 c-3 -10 1 -15 13 -15 10 0 18 -7 18 -15 0 -8 -6 -15 -13 -15 -16 0
-37 37 -29 50 10 15 18 12 11 -5z m-118 -28 c10 0 9 -4 -3 -16 -12 -13 -19
-13 -35 -3 -11 6 -27 12 -35 12 -9 0 -13 5 -10 11 4 6 19 7 38 3 18 -4 38 -7
45 -7z m197 -7 c-3 -5 -14 -10 -23 -9 -14 0 -13 2 3 9 27 11 27 11 20 0z
m-355 -10 c0 -5 -2 -10 -4 -10 -3 0 -8 5 -11 10 -3 6 -1 10 4 10 6 0 11 -4 11
-10z m244 -1 c3 -3 -10 -5 -29 -5 -18 0 -31 4 -29 8 6 9 49 6 58 -3z m218 -45
c-12 -8 -27 -12 -34 -8 -8 5 -6 10 8 15 35 14 50 10 26 -7z m53 -14 c3 -5 2
-10 -4 -10 -5 0 -13 5 -16 10 -3 6 -2 10 4 10 5 0 13 -4 16 -10z m15 -31 l-25
-20 37 3 c29 3 35 1 26 -9 -8 -10 -3 -16 22 -27 25 -10 29 -14 15 -20 -19 -7
-65 2 -65 14 0 10 -39 23 -62 20 -11 -1 -18 6 -18 16 0 13 3 14 14 5 11 -10
16 -8 21 8 5 18 21 27 50 30 6 0 -1 -9 -15 -20z m-80 -3 c0 -8 -6 -16 -14 -19
-10 -4 -12 0 -9 14 6 22 23 26 23 5z m-495 -47 c1 -8 -3 -17 -8 -20 -13 -9
-47 1 -47 15 0 6 -5 4 -11 -4 -9 -13 -10 -13 -7 0 4 14 43 30 63 26 6 -2 10
-9 10 -17z m695 5 c0 -2 -7 -4 -15 -4 -8 0 -15 4 -15 10 0 5 7 7 15 4 8 -4 15
-8 15 -10z m-190 -14 c0 -5 -6 -10 -14 -10 -8 0 -18 5 -21 10 -3 6 3 10 14 10
12 0 21 -4 21 -10z m167 -52 c-3 -7 -5 -2 -5 12 0 14 2 19 5 13 2 -7 2 -19 0
-25z m98 10 c14 -6 25 -15 25 -20 0 -5 -4 -7 -9 -3 -5 3 -12 1 -16 -4 -3 -6
-13 -7 -22 -4 -12 5 -15 2 -10 -9 8 -21 -3 -30 -20 -17 -18 15 -17 39 2 39 8
0 15 7 15 15 0 18 2 18 35 3z m-1012 -73 c6 -28 5 -28 -10 5 -14 29 -17 32
-21 15 -5 -24 -21 -45 -34 -45 -7 0 -6 5 1 13 9 12 18 42 20 71 2 19 38 -30
44 -59z m82 -6 c-6 -24 -9 -28 -21 -18 -10 8 -11 16 -4 29 6 10 7 27 3 37 -7
17 -6 17 11 0 13 -12 16 -25 11 -48z m1020 44 c20 -15 20 -15 -3 -10 -13 3
-29 -1 -38 -10 -11 -12 -18 -13 -27 -4 -8 8 -6 15 9 26 24 18 34 18 59 -2z
m55 -38 c13 -15 14 -14 -35 -30 -8 -2 -15 0 -15 5 0 6 4 10 10 10 5 0 7 7 4
15 -8 20 20 20 36 0z m-1163 -38 c10 -22 9 -24 -15 -22 -42 3 -43 4 -25 25 22
26 27 25 40 -3z m1063 13 c0 -5 -4 -10 -10 -10 -5 0 -10 5 -10 10 0 6 5 10 10
10 6 0 10 -4 10 -10z m51 -22 c0 -10 2 -10 6 0 2 6 9 12 15 12 7 0 6 -5 -1
-14 -10 -12 -24 -13 -66 -7 -13 2 16 21 33 21 6 0 12 -6 13 -12z m123 -24
c-26 -24 -50 -23 -40 1 3 8 0 15 -5 17 -5 2 8 4 31 4 l40 1 -26 -23z m126 -45
c0 -7 -11 -9 -25 -7 -14 3 -25 1 -25 -3 0 -5 -7 -9 -15 -9 -8 0 -15 4 -15 9 0
5 -3 16 -6 24 -3 10 1 17 13 19 22 5 73 -18 73 -33z m-60 -42 c50 5 69 -3 70
-29 0 -10 -49 -9 -75 1 -11 5 -24 5 -30 1 -13 -9 -59 11 -62 28 -2 6 2 12 8
12 5 0 7 6 4 13 -4 6 2 2 13 -10 16 -18 26 -20 72 -16z m130 9 c0 -2 -9 -6
-20 -9 -11 -3 -18 -1 -14 4 5 9 34 13 34 5z m30 -23 c-8 -3 -18 -11 -22 -17
-5 -7 -8 -4 -8 7 0 11 7 17 23 16 15 0 17 -2 7 -6z m-62 -38 c-4 -11 -28 -16
-28 -6 0 12 13 22 23 18 5 -1 7 -7 5 -12z m142 -25 c0 -28 20 -35 21 -8 0 22
1 22 8 3 5 -11 4 -21 0 -23 -5 -2 -9 -11 -9 -20 0 -13 -5 -11 -24 8 -16 17
-20 29 -14 37 5 7 6 18 2 24 -4 8 -3 9 4 5 7 -4 12 -16 12 -26z m75 -29 c-3
-5 4 -13 16 -16 11 -4 18 -9 16 -12 -8 -7 -47 16 -47 27 0 6 5 10 11 10 5 0 8
-4 4 -9z m-85 -22 c0 -6 -4 -7 -10 -4 -5 3 -10 11 -10 16 0 6 5 7 10 4 6 -3
10 -11 10 -16z m96 -14 c10 -8 17 -15 14 -15 -34 -8 -48 -8 -63 -4 -14 5 -16
9 -6 20 15 18 30 18 55 -1z m-1680 -69 c29 -8 31 -31 3 -46 -27 -15 -31 -10
-34 47 -1 26 -1 38 2 26 2 -12 14 -24 29 -27z m141 -21 c3 -20 3 -20 -6 0 -5
11 -10 14 -10 8 -1 -7 -11 -13 -22 -13 -18 0 -20 2 -9 15 17 21 44 15 47 -10z
m-70 -45 c1 -13 -5 -20 -15 -20 -15 0 -15 -2 -2 -10 10 -7 11 -12 4 -17 -6 -5
-10 -21 -9 -38 3 -41 4 -42 15 -25 5 8 12 11 16 7 4 -4 2 -13 -5 -20 -10 -9
-16 -7 -32 12 -11 13 -17 31 -14 39 8 21 -4 54 -17 46 -6 -4 -5 -9 3 -15 7 -4
10 -11 6 -16 -18 -17 -25 21 -9 46 28 45 56 50 59 11z m1917 -21 c-4 -7 -1
-10 7 -7 8 3 19 -1 24 -9 6 -8 20 -15 32 -16 12 0 19 -5 16 -10 -3 -4 -19 -5
-35 -2 -21 5 -28 4 -24 -4 4 -6 19 -11 32 -11 28 0 29 -23 1 -28 -20 -4 -62
33 -53 47 4 5 2 12 -4 16 -5 3 -10 -1 -10 -9 0 -9 -7 -16 -15 -16 -9 0 -12 6
-8 17 5 12 3 14 -7 8 -9 -5 -11 -4 -6 4 4 6 11 9 16 6 4 -3 13 2 20 10 15 18
24 20 14 4z m-1846 -54 c10 -21 9 -25 -3 -25 -8 0 -15 -5 -15 -11 0 -12 -25
-39 -36 -39 -3 0 -1 6 5 13 6 8 12 30 13 50 3 43 20 48 36 12z m1787 -5 c3 -6
-1 -13 -10 -16 -19 -8 -30 0 -20 15 8 14 22 14 30 1z m-1628 -38 c4 -29 -15
-28 -28 1 l-10 22 5 -22 c4 -24 -8 -31 -19 -13 -12 19 4 40 26 37 14 -2 24
-12 26 -25z m1833 -8 c0 5 7 3 15 -4 12 -10 15 -9 15 6 0 11 3 15 8 9 14 -21
67 -52 80 -47 11 3 10 -2 -2 -20 -13 -19 -22 -24 -46 -20 -17 2 -33 9 -36 14
-4 6 2 7 16 3 15 -5 20 -4 16 4 -4 6 -13 11 -20 11 -8 0 -19 7 -26 15 -6 8
-17 13 -23 12 -6 -1 -12 7 -14 18 -3 16 -2 17 6 5 6 -8 11 -11 11 -6z m-1860
-27 c12 4 12 3 2 -5 -8 -5 -13 -18 -11 -28 1 -11 -3 -30 -9 -44 -9 -22 -11
-23 -12 -5 -1 12 -4 15 -7 7 -4 -10 -8 -10 -17 2 -7 11 -16 13 -26 6 -8 -5
-11 -12 -7 -17 5 -4 12 -1 17 7 7 11 9 9 8 -11 l-2 -26 -59 45 c-32 24 -56 47
-53 50 3 3 14 -2 24 -11 20 -18 37 -23 28 -8 -3 5 1 12 10 15 8 3 13 2 9 -3
-3 -5 1 -12 7 -14 7 -3 4 -6 -6 -6 -16 -1 -17 -4 -8 -13 10 -10 17 -7 35 10
17 18 18 22 5 16 -15 -5 -18 -1 -17 22 0 16 3 23 6 17 3 -10 10 -9 26 2 18 13
24 13 32 2 5 -8 17 -12 25 -10z m-143 -9 c-3 -8 -6 -5 -6 6 -1 11 2 17 5 13 3
-3 4 -12 1 -19z m1944 -58 c12 0 19 -7 19 -19 0 -15 8 -21 33 -24 l32 -4 -35
-1 c-26 -2 -39 3 -49 19 -10 18 -15 19 -22 8 -6 -9 -8 6 -7 41 1 43 2 46 5 18
3 -30 9 -38 24 -38z m58 39 c21 -28 21 -30 3 -20 -11 6 -21 9 -23 6 -2 -2 -5
8 -5 21 -1 13 -1 24 0 24 1 0 13 -14 25 -31z m16 11 c3 -5 1 -10 -4 -10 -6 0
-11 5 -11 10 0 6 2 10 4 10 3 0 8 -4 11 -10z m190 -48 c-3 -3 -11 0 -18 7 -9
10 -8 11 6 5 10 -3 15 -9 12 -12z m-190 -12 c3 -6 -1 -7 -9 -4 -18 7 -21 14
-7 14 6 0 13 -4 16 -10z m188 -8 l28 -19 -45 1 c-24 1 -48 5 -53 10 -5 5 -3 6
5 2 6 -4 12 -3 12 3 0 5 -6 12 -12 14 -7 3 -2 6 12 6 14 1 38 -7 53 -17z
m-1883 -38 c0 -16 -9 -17 -30 -4 -9 6 -19 5 -29 -3 -12 -10 -13 -9 -3 9 8 16
18 20 37 17 14 -3 25 -12 25 -19z m2050 -34 c0 -5 -4 -10 -10 -10 -5 0 -10 5
-10 10 0 6 5 10 10 10 6 0 10 -4 10 -10z m-65 -19 c-2 -5 15 -7 38 -6 l42 3
-30 -13 c-16 -8 -36 -14 -42 -15 -7 0 -13 -6 -14 -12 0 -7 -4 -4 -8 7 -5 11
-5 25 0 31 5 6 5 15 1 19 -4 5 -1 5 6 1 7 -4 10 -11 7 -15z m-1999 -26 c-22
-16 -57 -21 -40 -6 7 8 29 15 54 20 3 0 -4 -6 -14 -14z m2144 -6 c0 -6 -4 -7
-10 -4 -5 3 -10 11 -10 16 0 6 5 7 10 4 6 -3 10 -11 10 -16z m-2127 -18 c-3
-13 -10 -18 -20 -14 -14 5 -13 8 3 20 23 17 23 17 17 -6z m1926 -31 c-8 -6 -5
-10 12 -13 24 -4 24 -4 1 -6 -28 -1 -39 23 -21 46 13 15 14 15 17 -2 2 -10 -2
-21 -9 -25z m236 30 c3 -6 -1 -7 -9 -4 -18 7 -21 14 -7 14 6 0 13 -4 16 -10z
m-2110 -40 c-3 -5 -2 -10 4 -10 5 0 11 5 13 11 3 9 19 7 56 -4 39 -11 54 -12
60 -3 10 16 81 15 75 -1 -3 -7 -18 -13 -34 -13 -17 0 -33 -7 -40 -19 -8 -12
-19 -16 -33 -13 -20 5 -20 5 -3 -12 24 -24 22 -33 -3 -11 -11 10 -17 21 -15
26 7 10 -32 22 -46 13 -8 -4 -8 0 0 15 8 14 8 21 1 21 -5 0 -10 -4 -10 -10 0
-13 -37 -13 -44 -1 -4 5 0 12 6 14 19 8 20 8 13 -3z m2232 -37 c-7 -7 -46 19
-52 35 -3 8 8 4 26 -8 16 -12 28 -24 26 -27z m-1963 2 c-7 -16 -24 -21 -24 -6
0 8 7 13 27 20 1 1 0 -6 -3 -14z m1956 -19 c0 -2 -8 -6 -18 -8 -12 -4 -18 1
-19 13 -2 16 2 17 18 9 10 -6 19 -12 19 -14z m55 2 c28 -13 35 -31 8 -21 -10
3 -15 3 -11 -2 4 -4 1 -14 -7 -21 -17 -17 -29 -18 -18 -1 4 6 9 20 10 30 3 16
1 17 -11 4 -9 -9 -13 -26 -10 -41 3 -18 0 -26 -10 -26 -28 0 -46 12 -46 31 0
17 3 18 20 9 12 -6 20 -7 20 -1 0 5 -6 12 -12 14 -8 4 -7 6 3 6 9 1 19 8 23
16 7 18 8 18 41 3z m46 -57 c6 10 9 10 9 2 0 -7 -9 -17 -19 -22 -17 -9 -18 -8
-13 11 3 14 7 17 10 9 4 -11 6 -11 13 0z m-2056 -21 c3 -5 1 -10 -4 -10 -6 0
-11 5 -11 10 0 6 2 10 4 10 3 0 8 -4 11 -10z m2115 -5 c16 10 12 0 -10 -25
-11 -13 -20 -18 -20 -11 0 7 -4 10 -9 7 -4 -3 -7 5 -6 17 3 31 3 31 20 17 8
-6 19 -9 25 -5z m-2116 -23 c3 -5 -1 -9 -9 -9 -8 0 -12 4 -9 9 3 4 7 8 9 8 2
0 6 -4 9 -8z m320 -7 c3 -10 -3 -17 -20 -21 -31 -8 -57 12 -34 26 22 14 47 12
54 -5z m-164 -5 c0 -5 -4 -10 -10 -10 -5 0 -10 5 -10 10 0 6 5 10 10 10 6 0
10 -4 10 -10z m1924 -34 c-3 -8 -1 -24 6 -35 9 -17 8 -21 -5 -21 -15 0 -22 50
-8 63 10 11 13 8 7 -7z m26 -81 c0 -8 5 -15 10 -15 6 0 5 -6 -2 -14 -18 -19
-33 -10 -36 19 -1 16 3 25 13 25 8 0 15 -7 15 -15z m110 -5 c0 -5 -2 -10 -4
-10 -3 0 -8 5 -11 10 -3 6 -1 10 4 10 6 0 11 -4 11 -10z m-1585 -31 c2 -3 -26
-5 -65 -4 -38 0 -71 3 -74 6 -3 3 26 5 64 4 38 -1 72 -3 75 -6z m-149 -36 c-3
-19 -36 -32 -36 -14 0 8 25 28 37 31 1 0 0 -8 -1 -17z m-96 -2 c0 -12 -30 -22
-43 -14 -7 4 -3 9 9 14 26 10 34 10 34 0z m416 -166 c-1 -30 -44 -32 -71 -3
l-21 23 46 0 c41 0 47 -3 46 -20z m1461 -22 c-3 -10 -5 -2 -5 17 0 19 2 27 5
18 2 -10 2 -26 0 -35z m-1531 -5 c5 -7 3 -8 -6 -3 -10 6 -12 3 -8 -13 4 -12 3
-20 -2 -17 -4 3 -10 14 -13 25 -6 22 17 28 29 8z m59 -18 c3 -6 -1 -7 -9 -4
-18 7 -21 14 -7 14 6 0 13 -4 16 -10z m1452 -90 c1 -22 -3 -40 -8 -40 -6 0 -7
4 -4 10 3 5 2 18 -4 27 -7 14 -23 18 -75 18 l-66 1 0 -73 c0 -42 -4 -73 -10
-73 -15 0 -13 136 3 147 6 5 43 9 80 8 38 0 71 3 73 7 8 13 10 10 11 -32z
m-1182 10 c3 -5 2 -10 -4 -10 -5 0 -13 5 -16 10 -3 6 -2 10 4 10 5 0 13 -4 16
-10z m-144 -36 c13 -12 22 -13 38 -5 26 14 31 14 25 -2 -6 -16 -64 -21 -64 -6
0 5 -7 9 -15 9 -8 0 -15 5 -15 10 0 14 11 12 31 -6z m81 -46 c-7 -7 -16 -7
-28 0 -14 8 -13 10 10 10 18 0 24 -4 18 -10z m1217 -8 c14 -13 14 -17 -8 -42
-14 -15 -29 -25 -33 -21 -5 3 -2 13 7 23 10 11 15 25 12 32 -3 8 -9 4 -15 -12
-12 -28 -13 -27 -16 12 -1 21 2 27 18 25 11 -1 27 -9 35 -17z m31 16 c0 -3 -4
-8 -10 -11 -5 -3 -10 -1 -10 4 0 6 5 11 10 11 6 0 10 -2 10 -4z m-1160 -61 c0
-18 16 -20 23 -2 3 6 6 3 6 -7 1 -15 4 -17 12 -9 9 9 16 6 30 -10 9 -12 21
-18 25 -14 5 4 2 12 -6 17 -11 7 -11 10 -2 10 7 0 15 -7 18 -15 4 -8 12 -15
20 -15 8 0 14 -4 14 -10 0 -5 -6 -10 -14 -10 -27 0 -121 44 -143 67 -28 30
-29 37 -3 23 11 -6 20 -17 20 -25z m170 -16 c0 -5 5 -7 10 -4 6 4 9 1 8 -7 -2
-8 5 -12 19 -10 12 2 24 -2 28 -8 3 -5 11 -10 16 -10 6 0 7 4 4 10 -4 6 2 7
17 1 27 -10 43 -57 21 -65 -9 -4 -11 -2 -7 6 5 7 2 9 -8 5 -9 -3 -27 1 -42 8
-15 8 -29 14 -31 15 -3 0 -4 2 -2 4 1 2 -13 18 -30 35 -21 20 -27 31 -18 31 8
0 15 -5 15 -11z m174 1 c7 0 13 -6 13 -13 0 -18 -44 -9 -51 10 -5 11 -2 13 10
9 8 -3 21 -6 28 -6z m-81 -122 c-2 -5 -10 -8 -18 -8 -8 0 -16 3 -18 8 -3 4 5
7 18 7 13 0 21 -3 18 -7z m250 -45 c-6 -16 -33 -17 -33 -2 0 5 -4 7 -10 4 -5
-3 -10 -2 -10 3 0 5 13 9 29 8 18 -1 27 -5 24 -13z m307 -3 c0 -5 -11 -10 -25
-10 -14 0 -25 5 -25 10 0 6 11 10 25 10 14 0 25 -4 25 -10z m-153 -13 c9 0 10
-4 2 -13 -12 -15 -145 -18 -154 -4 -15 24 9 32 74 25 36 -4 72 -8 78 -8z"/>
<path d="M3790 4750 c0 -5 4 -10 9 -10 5 0 18 -3 28 -6 16 -5 16 -4 -1 10 -23
18 -36 20 -36 6z"/>
<path d="M1867 4711 c-4 -17 -3 -21 5 -13 5 5 8 16 6 23 -3 8 -7 3 -11 -10z"/>
<path d="M3927 4659 c7 -7 15 -10 18 -7 3 3 -2 9 -12 12 -14 6 -15 5 -6 -5z"/>
<path d="M2200 4463 c8 -3 18 -11 22 -17 4 -6 10 -7 15 -3 9 10 -16 27 -37 26
-13 -1 -13 -1 0 -6z"/>
<path d="M4480 4340 c0 -5 5 -10 11 -10 5 0 7 5 4 10 -3 6 -8 10 -11 10 -2 0
-4 -4 -4 -10z"/>
<path d="M6035 6829 c-82 -16 -146 -40 -139 -51 4 -7 2 -8 -4 -4 -13 8 -75
-28 -65 -38 4 -4 0 -4 -8 -1 -10 4 -38 -16 -80 -57 -75 -73 -108 -117 -101
-137 2 -8 0 -11 -6 -8 -11 8 -46 -69 -61 -134 -32 -136 6 -364 67 -402 7 -5
10 -12 7 -17 -8 -13 36 -71 48 -63 6 3 7 1 3 -6 -7 -10 21 -41 84 -96 32 -27
111 -66 122 -59 7 5 8 3 3 -6 -6 -9 -1 -10 16 -5 17 4 20 3 10 -3 -24 -17 7
-24 38 -8 27 14 29 14 26 -2 -1 -11 -10 -16 -26 -15 -23 3 -23 2 -5 -12 10 -8
23 -12 27 -9 5 3 9 1 9 -3 0 -14 130 -84 142 -77 7 4 8 3 4 -5 -4 -6 0 -14 11
-18 10 -3 30 -15 45 -25 18 -12 36 -17 50 -13 16 4 19 3 9 -3 -16 -12 3 -27
21 -16 6 4 8 3 5 -3 -4 -6 20 -27 54 -47 33 -20 57 -30 53 -23 -4 6 4 3 17 -9
13 -11 41 -31 62 -43 31 -19 40 -21 53 -11 16 14 27 8 30 -15 1 -8 -2 -13 -7
-9 -5 3 -6 10 -3 16 4 6 1 9 -5 7 -7 -3 -12 -8 -12 -13 0 -13 242 -147 253
-140 6 4 8 3 5 -2 -7 -12 92 -70 112 -66 7 2 11 -1 8 -5 -3 -5 7 -17 24 -27
16 -9 29 -14 29 -9 0 4 4 3 8 -3 7 -10 81 -56 182 -112 25 -13 50 -28 55 -32
6 -4 102 -60 215 -125 113 -65 266 -153 340 -196 181 -104 237 -123 365 -123
55 0 118 6 140 12 22 6 42 11 45 10 9 -4 94 46 157 91 51 36 62 48 57 66 -3
13 1 27 10 34 11 9 16 10 16 2 0 -6 -4 -11 -10 -11 -5 0 -10 -8 -10 -17 1 -27
70 53 104 120 19 38 26 63 21 79 -4 16 -3 19 3 10 12 -18 25 30 17 61 -4 15
-3 18 3 9 6 -9 11 4 15 42 6 65 -2 166 -14 166 -5 0 -6 6 -3 13 6 15 -31 118
-55 157 -18 28 -59 73 -46 51 5 -9 4 -12 -3 -7 -6 4 -9 12 -6 19 6 18 -91 111
-107 102 -8 -5 -10 -4 -5 3 9 14 -83 75 -101 68 -7 -3 -12 0 -10 7 1 8 -9 11
-28 10 -20 -2 -25 1 -16 6 9 6 10 11 2 15 -6 4 -16 4 -23 0 -6 -4 -8 -3 -5 3
4 6 -20 27 -54 47 -33 20 -57 30 -53 23 4 -6 -4 -3 -17 9 -13 11 -41 31 -62
43 -31 19 -40 21 -53 11 -16 -14 -27 -8 -30 15 -1 8 2 13 7 9 5 -3 7 -10 4
-15 -4 -5 -2 -9 4 -9 28 0 17 22 -21 41 -24 12 -80 44 -125 71 -46 27 -88 46
-94 42 -7 -4 -9 -3 -6 2 7 12 -93 70 -113 65 -8 -1 -12 1 -7 5 9 9 -43 45 -55
38 -4 -3 -8 -1 -8 4 0 4 -19 19 -42 31 -24 13 -64 37 -90 53 -26 17 -53 26
-59 22 -7 -4 -9 -3 -6 3 3 5 -11 19 -31 30 -20 11 -179 103 -352 203 -297 173
-344 200 -430 246 -19 11 -37 21 -40 24 -19 20 -173 99 -182 94 -7 -5 -8 -3
-3 6 6 10 3 12 -13 8 -12 -4 -20 -3 -17 1 7 13 -95 40 -170 45 -38 3 -92 0
-120 -5z m320 -92 c-11 -6 -21 -5 -28 3 -9 8 -7 9 7 4 13 -5 17 -4 12 4 -5 8
-2 10 10 5 15 -6 15 -7 -1 -16z m50 4 c3 -5 2 -12 -3 -15 -5 -3 -9 1 -9 9 0
17 3 19 12 6z m124 -77 c14 -12 -19 -1 -35 12 -18 14 -18 14 6 3 14 -6 27 -13
29 -15z m125 -66 c-3 -4 -11 -5 -19 -1 -21 7 -19 12 4 10 11 0 18 -5 15 -9z
m80 -64 c3 -8 2 -12 -4 -9 -6 3 -10 10 -10 16 0 14 7 11 14 -7z m41 -4 c3 -6
-1 -7 -9 -4 -18 7 -21 14 -7 14 6 0 13 -4 16 -10z m-1131 -25 c-9 -14 -18 -25
-21 -25 -5 0 5 18 20 38 17 22 18 13 1 -13z m1162 -10 c2 -12 -2 -13 -19 -4
-32 17 -35 22 -8 14 18 -6 22 -4 16 6 -5 8 -4 10 0 6 5 -4 10 -14 11 -22z
m-1145 -8 c-10 -9 -11 -8 -5 6 3 10 9 15 12 12 3 -3 0 -11 -7 -18z m1244 -66
c-6 -5 -25 10 -25 20 0 5 6 4 14 -3 8 -7 12 -15 11 -17z m149 -73 c-5 -7 -2
-9 8 -6 8 4 15 1 15 -6 0 -6 -8 -12 -17 -12 -10 0 -16 9 -16 22 0 13 4 20 8
18 5 -3 5 -10 2 -16z m96 -70 c0 -6 -6 -5 -15 2 -8 7 -15 14 -15 16 0 2 7 1
15 -2 8 -4 15 -11 15 -16z m68 -6 c21 -17 22 -18 3 -18 -11 0 -18 4 -15 8 2 4
-4 11 -13 17 -10 6 -13 10 -8 10 6 1 20 -7 33 -17z m127 -92 c3 -5 1 -10 -4
-10 -6 0 -11 5 -11 10 0 6 2 10 4 10 3 0 8 -4 11 -10z m32 -5 c0 -8 -4 -12 -9
-9 -5 3 -6 10 -3 15 9 13 12 11 12 -6z m257 -133 c2 -4 -4 -8 -14 -8 -10 0
-16 4 -14 8 3 4 9 8 14 8 5 0 11 -4 14 -8z m-1888 -144 c3 -4 -1 -5 -10 -4 -8
1 -18 5 -22 8 -3 4 1 5 10 4 8 -1 18 -5 22 -8z m2139 -18 c3 -6 -1 -7 -9 -4
-18 7 -21 14 -7 14 6 0 13 -4 16 -10z m-2035 -52 c0 -4 -4 -8 -9 -8 -6 0 -12
4 -15 8 -3 5 1 9 9 9 8 0 15 -4 15 -9z m2403 -163 c-3 -9 -8 -14 -10 -11 -3 3
-2 9 2 15 9 16 15 13 8 -4z m-1942 -138 c-10 -9 -11 -8 -5 6 3 10 9 15 12 12
3 -3 0 -11 -7 -18z m2119 19 c0 -2 -7 -7 -16 -10 -8 -3 -12 -2 -9 4 6 10 25
14 25 6z m107 -82 c8 3 11 1 8 -4 -3 -6 -11 -10 -17 -10 -12 0 -37 30 -38 45
0 5 7 -1 16 -13 9 -14 22 -21 31 -18z m-43 -10 c3 -8 2 -12 -4 -9 -6 3 -10 10
-10 16 0 14 7 11 14 -7z m-1799 -142 c-3 -3 -11 0 -18 7 -9 10 -8 11 6 5 10
-3 15 -9 12 -12z m255 -156 c-7 -7 -13 -7 -20 0 -6 6 -3 10 10 10 13 0 16 -4
10 -10z m450 -246 c8 -5 11 -10 5 -10 -5 0 -17 5 -25 10 -8 5 -10 10 -5 10 6
0 17 -5 25 -10z m1183 -45 c-3 -9 -8 -14 -10 -11 -3 3 -2 9 2 15 9 16 15 13 8
-4z m51 3 c-3 -5 -9 -6 -14 -3 -5 3 -12 -4 -15 -16 -4 -11 -9 -18 -12 -16 -9
9 16 44 31 44 8 0 13 -4 10 -9z m-130 -143 c3 -8 1 -15 -4 -15 -6 0 -10 7 -10
15 0 8 2 15 4 15 2 0 6 -7 10 -15z m-177 -130 c0 -8 -4 -12 -9 -9 -5 3 -6 10
-3 15 9 13 12 11 12 -6z"/>
<path d="M1743 5526 c-50 -46 -60 -60 -61 -90 -1 -28 2 -34 14 -29 8 3 13 12
10 19 -19 45 -19 50 -5 31 13 -17 48 -16 50 2 5 39 4 51 -3 51 -5 0 -6 5 -3
10 4 6 11 7 17 4 13 -9 89 26 82 38 -3 5 -15 2 -25 -8 -11 -9 -22 -14 -26 -11
-4 4 2 14 13 22 10 8 14 15 8 15 -6 0 -38 -24 -71 -54z m-14 -43 c-12 -15 -12
-16 5 -10 16 6 17 5 6 -8 -12 -15 -14 -15 -22 -1 -6 10 -4 21 4 30 18 19 24
10 7 -11z"/>
<path d="M1570 5246 c0 -8 5 -18 10 -21 6 -3 10 1 10 9 0 8 -4 18 -10 21 -5 3
-10 -1 -10 -9z"/>
<path d="M3527 4899 c7 -7 15 -10 18 -7 3 3 -2 9 -12 12 -14 6 -15 5 -6 -5z"/>
<path d="M2310 4385 c-14 -17 -35 -21 -25 -5 4 6 -1 7 -11 3 -14 -5 -13 -8 6
-18 18 -10 30 -9 62 3 21 8 37 16 36 17 -16 12 -58 12 -68 0z m29 2 c-2 -1
-13 -9 -24 -17 -19 -14 -19 -14 -6 3 7 9 18 17 24 17 6 0 8 -1 6 -3z"/>
<path d="M2621 4211 c-8 -5 -9 -11 -3 -15 5 -3 12 1 16 9 6 17 6 18 -13 6z"/>
<path d="M4661 4120 c0 -8 4 -22 9 -30 12 -18 12 -2 0 25 -6 13 -9 15 -9 5z"/>
<path d="M3335 3820 c3 -5 8 -10 11 -10 2 0 4 5 4 10 0 6 -5 10 -11 10 -5 0
-7 -4 -4 -10z"/>
<path d="M3505 3740 c3 -5 8 -10 11 -10 2 0 4 5 4 10 0 6 -5 10 -11 10 -5 0
-7 -4 -4 -10z"/>
<path d="M4515 3590 c20 -22 11 -44 -14 -35 -12 5 -13 4 -4 -6 14 -14 43 4 43
28 0 8 4 12 9 8 5 -3 12 -2 15 3 3 5 0 9 -7 10 -7 0 -23 3 -36 6 -23 5 -23 5
-6 -14z"/>
<path d="M3819 3497 c6 -8 7 -18 3 -22 -4 -5 0 -4 8 0 8 5 28 8 45 7 28 -1 27
0 -10 13 -50 18 -60 19 -46 2z"/>
<path d="M3955 3420 c-8 -13 5 -13 25 0 13 8 13 10 -2 10 -9 0 -20 -4 -23 -10z"/>
<path d="M3990 3409 c-12 -9 -12 -10 4 -5 10 4 25 1 33 -5 15 -13 28 -6 18 10
-8 14 -36 14 -55 0z"/>
</g>
</svg>
