<svg width="24px" height="24px" viewBox="0 0 24.000488 24" version="1.1"
  xmlns:xlink="http://www.w3.org/1999/xlink"
  xmlns="http://www.w3.org/2000/svg">
  <g id="Grupo">
    <path d="M23.5478 10.9309L13.0691 0.452711C12.4657 -0.150904 11.487 -0.150904 10.8831 0.452711L8.70742 2.62896L11.4674 5.38898C12.1089 5.17218 12.8444 5.31767 13.3556 5.82908C13.8699 6.34363 14.014 7.08541 13.7918 7.72925L16.4523 10.3895C17.0961 10.1675 17.8384 10.3111 18.3524 10.8259C19.0707 11.5442 19.0707 12.7081 18.3524 13.4269C17.6336 14.1454 16.4698 14.1454 15.7507 13.4269C15.2106 12.8862 15.0768 12.0922 15.3508 11.4267L12.8695 8.94562L12.8695 15.4746C13.0445 15.5613 13.2098 15.6768 13.3556 15.8225C14.0739 16.5408 14.0739 17.7047 13.3556 18.4238C12.6373 19.1418 11.4727 19.1418 10.7549 18.4238C10.0366 17.7044 10.0366 16.5406 10.7549 15.8225C10.9325 15.6452 11.1381 15.5109 11.3575 15.4211L11.3575 8.83122C11.1381 8.74137 10.933 8.60843 10.7549 8.42977C10.2108 7.88597 10.08 7.08724 10.3589 6.41912L7.6381 3.69776L0.452711 10.8824C-0.150904 11.4865 -0.150904 12.4652 0.452711 13.0688L10.932 23.5473C11.5353 24.1509 12.5138 24.1509 13.1179 23.5473L23.5478 13.1174C24.1514 12.5138 24.1514 11.5346 23.5478 10.9309L23.5478 10.9309Z" id="Forma" fill="#F05133" stroke="none" />
    <path d="M0 0L24 0L24 24L0 24L0 0Z" id="Rectángulo" fill="none" fill-rule="evenodd" stroke="none" />
  </g>
</svg>