<svg width="24px" height="24px" viewBox="0 0 24 24" version="1.1"
  xmlns:xlink="http://www.w3.org/1999/xlink"
  xmlns="http://www.w3.org/2000/svg">
  <path d="M24 0L0 0L0 24L24 24L24 0ZM18.3467 20.1196C17.2344 20.1196 16.6055 19.5396 16.1221 18.7502L14.2891 19.8149C14.9512 21.123 16.3047 22.1211 18.3989 22.1211C20.541 22.1211 22.1362 21.0088 22.1362 18.9783C22.1362 17.095 21.0542 16.2573 19.1382 15.4355L18.5742 15.1941C17.6064 14.7749 17.1875 14.501 17.1875 13.8245C17.1875 13.2771 17.606 12.8579 18.2666 12.8579C18.9146 12.8579 19.3315 13.1311 19.7183 13.8245L21.4746 12.6968C20.7314 11.3901 19.7007 10.8911 18.2666 10.8911C16.2524 10.8911 14.9639 12.1787 14.9639 13.8701C14.9639 15.7063 16.0449 16.575 17.6724 17.2683L18.2363 17.5103C19.2646 17.96 19.8784 18.2339 19.8784 19.0073C19.8784 19.6526 19.2813 20.1196 18.3467 20.1196ZM9.60645 20.1055C8.83154 20.1055 8.50928 19.5742 8.15527 18.9456L6.31934 20.0571C6.85107 21.1826 7.89697 22.1169 9.70264 22.1169C11.7012 22.1169 13.0703 21.0542 13.0703 18.719L13.0703 11.0198L10.8149 11.0198L10.8149 18.6885C10.8149 19.8157 10.3477 20.1055 9.60645 20.1055Z" id="Máscara-Sustraer" fill="#F7DF1E" fill-rule="evenodd" stroke="none" />
</svg>