<svg width="24" height="24" viewBox="0 0 31.120117 31.120117" version="1.1"
  xmlns:xlink="http://www.w3.org/1999/xlink"
  xmlns="http://www.w3.org/2000/svg">
  <defs>
    <path d="M0 0L31.12 0L31.12 31.12L0 31.12L0 0Z" id="path_1" />
    <clipPath id="mask_1">
      <use xlink:href="#path_1" />
    </clipPath>
  </defs>
  <g id="Grupo">
    <path d="M0 0L31.12 0L31.12 31.12L0 31.12L0 0Z" id="Fondo" fill="#FFFFFF" fill-opacity="0" fill-rule="evenodd" stroke="none" />
    <g clip-path="url(#mask_1)">
      <path d="M25.8455 21.2491C26.1035 21.0713 26.2629 20.742 26.2639 20.3851L26.2789 14.5981C26.2798 14.2411 26.4393 13.9118 26.6972 13.7341L29.3114 11.9321C29.5692 11.7544 29.8865 11.755 30.1438 11.9338C30.4012 12.1125 30.5597 12.4422 30.5597 12.7991L30.5597 23.3201C30.5597 23.6779 30.4002 24.0086 30.1415 24.187L20.2756 30.9871C20.0191 31.1637 19.7039 31.1641 19.4472 30.9881L11.7047 25.6741C11.4451 25.4961 11.2848 25.1649 11.2847 24.8061L11.2847 19.5011C11.2847 19.4951 11.2906 19.4911 11.2956 19.4941C11.2997 19.4971 11.3056 19.4941 11.3056 19.4871L11.3056 19.4811C11.3056 19.4771 11.3072 19.4731 11.3106 19.4711L17.6872 15.0751C17.6931 15.0711 17.6905 15.0601 17.6839 15.0601C17.6802 15.0601 17.6772 15.0565 17.6772 15.0521L17.6897 9.85106C17.6909 9.49309 17.5325 9.16166 17.2745 8.98206C17.0164 8.80245 16.6981 8.80207 16.4397 8.98106L11.7006 12.2581C11.4431 12.4359 11.1263 12.4359 10.8689 12.2581L6.11471 8.97307C5.85694 8.79495 5.53958 8.79522 5.28201 8.97378C5.02445 9.15234 4.86573 9.48212 4.86555 9.83907L4.86555 19.2391C4.86575 19.5956 4.70773 19.9253 4.4508 20.1044C4.19387 20.2835 3.8769 20.2849 3.61889 20.1081L0.980548 18.2981C0.720402 18.1198 0.560045 17.7876 0.560548 17.4281L0.583881 0.998067C0.58453 0.641596 0.743257 0.312498 1.0005 0.134248C1.25775 -0.0440028 1.57462 -0.0444508 1.83222 0.133072L10.8697 6.36207C11.1267 6.53917 11.4427 6.53917 11.6997 6.36207L20.7347 0.133068C20.9927 -0.0447176 21.3101 -0.0439799 21.5675 0.135004C21.8249 0.313988 21.9833 0.644068 21.983 1.00107L21.983 17.4351C21.9832 17.7928 21.824 18.1234 21.5656 18.302L16.8339 21.5721C16.5752 21.751 16.416 22.0824 16.4167 22.4407C16.4174 22.7991 16.5778 23.1295 16.8372 23.3071L19.4472 25.0901C19.7039 25.2654 20.0187 25.2646 20.2747 25.0881L25.8455 21.2491L25.8455 21.2491ZM26.393 6.50707C26.3933 6.86708 26.5548 7.19917 26.8159 7.37652C27.077 7.55388 27.3973 7.54913 27.6547 7.36408L30.1547 5.56407C30.4058 5.38356 30.5595 5.05826 30.5597 4.70707L30.5597 1.03907C30.5592 0.679215 30.3976 0.347463 30.1365 0.170357C29.8755 -0.00674891 29.5553 -0.00189352 29.298 0.183071L26.798 1.98307C26.547 2.16358 26.3933 2.48888 26.393 2.84007L26.393 6.50807L26.393 6.50707Z" id="Forma" fill="#007FFF" fill-rule="evenodd" stroke="none" />
    </g>
  </g>
</svg>