<svg width="23.973633px" height="24px" viewBox="0 0 23.973633 24" version="1.1"
  xmlns:xlink="http://www.w3.org/1999/xlink"
  xmlns="http://www.w3.org/2000/svg">
  <defs>
    <radialGradient gradientUnits="objectBoundingBox" cx="50%" cy="0%" fx="50%" fy="0%" r="100.05482%" gradientTransform="translate(0.5,0),scale(1,0.9989012),rotate(90.00008),scale(1,1.1551727),translate(-0.5,-0)" id="nngradient_1">
      <stop offset="0%" stop-color="#20C6B7" />
      <stop offset="100%" stop-color="#4D9ABF" />
    </radialGradient>
  </defs>
  <path d="M17.3745 8.32861L17.3657 8.32495C17.3608 8.323 17.3555 8.32104 17.3516 8.31665C17.3369 8.30103 17.3301 8.27954 17.334 8.25854L17.8179 5.30029L20.0864 7.57007L17.7271 8.57397C17.7202 8.57666 17.7134 8.57788 17.7061 8.57764L17.6968 8.57764C17.6938 8.57593 17.6904 8.57324 17.6841 8.56714C17.5967 8.46924 17.4917 8.38843 17.3745 8.32861L17.3745 8.32861ZM20.6655 8.14844L23.0918 10.5745C23.5957 11.0789 23.8477 11.3306 23.9399 11.6223C23.9536 11.6655 23.9648 11.7087 23.9736 11.7532L18.1758 9.29761C18.1724 9.29639 18.1694 9.29492 18.1665 9.2937C18.1431 9.28442 18.1162 9.27368 18.1162 9.25C18.1162 9.22632 18.1436 9.21484 18.167 9.20557L18.1743 9.20239L20.6655 8.14844ZM23.8745 12.5317C23.7495 12.7671 23.5054 13.0112 23.0923 13.4248L20.3569 16.1597L16.8193 15.4229L16.8003 15.4192C16.769 15.4141 16.7358 15.4084 16.7358 15.3804C16.709 15.0852 16.5605 14.8149 16.3262 14.6335C16.3115 14.6191 16.3154 14.5967 16.3198 14.5759C16.3198 14.5728 16.3198 14.5698 16.3213 14.5671L16.9863 10.4824L16.9888 10.4688C16.9927 10.4373 16.9985 10.4011 17.0264 10.4011C17.3145 10.3652 17.5762 10.2153 17.7524 9.98486C17.7583 9.97852 17.7617 9.97168 17.7695 9.96802C17.7896 9.9585 17.8135 9.96802 17.834 9.97681L23.874 12.5317L23.8745 12.5317ZM19.728 16.7886L15.23 21.2866L16 16.5544L16.001 16.5483C16.002 16.542 16.0029 16.5359 16.0049 16.53C16.0112 16.5151 16.0273 16.5088 16.043 16.5027L16.0508 16.4995C16.2192 16.4275 16.3682 16.3167 16.4858 16.1758C16.5005 16.1584 16.519 16.1414 16.542 16.1384C16.5479 16.1375 16.5542 16.1375 16.5601 16.1384L19.7275 16.7893L19.728 16.7886ZM14.2778 22.2385L13.771 22.7456L8.16602 14.6448C8.16357 14.6418 8.16162 14.6389 8.15967 14.636C8.15088 14.6243 8.1416 14.6123 8.14307 14.5986C8.14307 14.5886 8.15039 14.5798 8.15723 14.5723L8.16357 14.5642C8.18018 14.5391 8.19482 14.5139 8.21045 14.4871L8.22266 14.4653L8.22461 14.4634C8.2334 14.4482 8.2417 14.4338 8.25684 14.4258C8.26953 14.4194 8.28809 14.4221 8.30225 14.425L14.5122 15.7058C14.5293 15.7085 14.5459 15.7156 14.5596 15.7266C14.5679 15.7346 14.5698 15.7434 14.5718 15.7534C14.6592 16.0857 14.8975 16.3577 15.2148 16.4888C15.2324 16.4976 15.2251 16.5171 15.2168 16.5376C15.2129 16.5466 15.2095 16.5562 15.2075 16.5659C15.1294 17.0415 14.4585 21.1338 14.2778 22.2385L14.2778 22.2385ZM13.2188 23.2971C12.8452 23.667 12.625 23.8628 12.376 23.9417C12.1304 24.0195 11.8667 24.0195 11.6211 23.9417C11.3291 23.8491 11.0771 23.5974 10.5732 23.093L4.94434 17.4641L6.41455 15.1838C6.42139 15.1726 6.42822 15.1626 6.43945 15.1543C6.45508 15.1431 6.47754 15.1482 6.49658 15.1543C6.83398 15.2561 7.19629 15.2378 7.52197 15.1023C7.53857 15.0962 7.55566 15.0918 7.56885 15.1038C7.5752 15.1096 7.58105 15.1165 7.58643 15.1238L13.2188 23.2976L13.2188 23.2971ZM4.40137 16.9214L3.11035 15.6301L5.66016 14.5422C5.66699 14.5393 5.67383 14.5378 5.68115 14.5378C5.70215 14.5378 5.71484 14.5591 5.72607 14.5786C5.75146 14.6179 5.77881 14.6563 5.80713 14.6936L5.81543 14.7036C5.82324 14.7144 5.81787 14.7249 5.81055 14.7351L4.40234 16.9214L4.40137 16.9214ZM2.53857 15.0586L0.905273 13.4248C0.626953 13.147 0.425781 12.9456 0.285645 12.772L5.25293 13.8022C5.25879 13.8035 5.26514 13.8044 5.27148 13.8054C5.30225 13.8105 5.33594 13.8162 5.33594 13.845C5.33594 13.8762 5.29932 13.8906 5.26758 13.9026L5.25342 13.9087L2.53857 15.0586ZM0 11.9321C0.00585938 11.8269 0.0244141 11.7227 0.0561523 11.6223C0.148926 11.3306 0.400391 11.0789 0.905273 10.5745L2.99561 8.48389C3.95313 9.87378 4.91357 11.2617 5.87646 12.6482C5.9082 12.6919 5.92676 12.717 5.90771 12.7358C5.81592 12.8367 5.72461 12.9468 5.66016 13.0662C5.65332 13.0815 5.64258 13.095 5.62891 13.105C5.62061 13.1101 5.6123 13.1082 5.60254 13.1064L5.60156 13.1064L0 11.9314L0 11.9321ZM3.55518 7.92432L6.36523 5.11328C6.62988 5.229 7.5918 5.63525 8.45117 5.99829C9.10205 6.27368 9.6958 6.52417 9.88232 6.60547C9.90088 6.61304 9.91797 6.62036 9.92578 6.63916C9.93115 6.65063 9.92822 6.66479 9.92578 6.67676C9.83545 7.08911 9.9585 7.51904 10.2534 7.82104C10.272 7.83984 10.2534 7.8667 10.2368 7.88989L10.2285 7.90308L7.37402 12.324C7.3667 12.3364 7.35986 12.3472 7.34717 12.3552C7.33203 12.3645 7.31104 12.3601 7.29346 12.356C7.18213 12.3267 7.06836 12.3113 6.95361 12.3096C6.85059 12.3096 6.73926 12.3284 6.62646 12.3489L6.62598 12.3489C6.61377 12.3508 6.60205 12.3533 6.59229 12.3459C6.58105 12.3367 6.57178 12.3259 6.56396 12.314L3.55469 7.92432L3.55518 7.92432ZM6.93408 4.54541L10.5732 0.906494C11.0771 0.402588 11.3291 0.150146 11.6211 0.0583496C11.8667 -0.0195313 12.1304 -0.0195313 12.376 0.0583496C12.6675 0.150146 12.9199 0.402588 13.4238 0.906494L14.2124 1.69507L11.624 5.70337C11.6177 5.71509 11.6089 5.72534 11.5986 5.73364C11.583 5.74414 11.561 5.73975 11.542 5.73364C11.1279 5.60791 10.6782 5.69458 10.3403 5.96509C10.3232 5.98267 10.2983 5.97266 10.2769 5.96313C9.93896 5.81616 7.31006 4.70508 6.93408 4.54541L6.93408 4.54541ZM14.7617 2.24463L17.1519 4.63452L16.5757 8.20093L16.5757 8.21021C16.5752 8.21851 16.5737 8.22656 16.5708 8.23413C16.5645 8.24658 16.5522 8.24902 16.5396 8.25293C16.4165 8.29028 16.3003 8.3479 16.1963 8.42383C16.1919 8.427 16.188 8.43042 16.1841 8.43433C16.1772 8.44189 16.1704 8.44873 16.1587 8.44995C16.1499 8.45044 16.1406 8.44873 16.1318 8.44556L12.4902 6.89844L12.4834 6.89526C12.4604 6.88574 12.4326 6.87451 12.4326 6.85083C12.4116 6.64795 12.3452 6.45215 12.2388 6.27808C12.2212 6.24927 12.2017 6.21924 12.2168 6.18994L14.7617 2.24463ZM12.3008 7.63135L15.7144 9.07715C15.7334 9.08594 15.7539 9.09424 15.7622 9.11353C15.7651 9.12524 15.7651 9.13745 15.7622 9.14917C15.752 9.19922 15.7432 9.25635 15.7432 9.31372L15.7432 9.40967C15.7432 9.43335 15.7188 9.44336 15.6963 9.45288L15.6895 9.45532C15.1489 9.68628 8.09717 12.6931 8.08643 12.6931C8.07568 12.6931 8.06445 12.6931 8.05371 12.6826C8.03516 12.6638 8.05371 12.6375 8.0708 12.6138C8.07373 12.6096 8.07666 12.6055 8.07959 12.6013L10.8848 8.25732L10.8896 8.24976C10.9063 8.22339 10.9248 8.19409 10.9551 8.19409L10.9829 8.19849C11.0469 8.20728 11.1035 8.21533 11.1602 8.21533C11.5859 8.21533 11.9805 8.00806 12.2183 7.65381C12.2236 7.64453 12.231 7.63599 12.2393 7.62891C12.2563 7.61621 12.2813 7.62256 12.3008 7.63135L12.3008 7.63135ZM8.39111 13.3804L16.0776 10.1025C16.0776 10.1025 16.0889 10.1025 16.0996 10.113C16.1416 10.155 16.1772 10.1833 16.2114 10.2095L16.2285 10.2202C16.2441 10.229 16.2598 10.239 16.2607 10.2551C16.2607 10.2615 16.2607 10.2651 16.2598 10.271L15.6011 14.3157L15.5986 14.3318C15.5942 14.3633 15.5898 14.3989 15.5605 14.3989C15.2041 14.4229 14.8823 14.6213 14.7012 14.929L14.6982 14.9341C14.6895 14.9485 14.6812 14.9622 14.6665 14.9697C14.6538 14.9761 14.6367 14.9734 14.623 14.9702L8.49316 13.7061C8.48682 13.7046 8.39795 13.3811 8.39111 13.3804L8.39111 13.3804Z" id="Forma" fill="url(#nngradient_1)" fill-rule="evenodd" stroke="none" />
</svg>