<svg width="24px" height="24px" viewBox="0 0 24 24" version="1.1"
  xmlns:xlink="http://www.w3.org/1999/xlink"
  xmlns="http://www.w3.org/2000/svg">
  <g id="Npm-logo">
    <path d="M0 3.52552L0 1.76276C0 1.27599 0.1721 0.860502 0.516301 0.516301C0.860502 0.1721 1.27599 0 1.76276 0L22.2372 0C22.724 0 23.1395 0.1721 23.4837 0.516301C23.8279 0.860502 24 1.27599 24 1.76276L24 22.2372C24 22.724 23.8279 23.1395 23.4837 23.4837C23.1395 23.8279 22.724 24 22.2372 24L1.76276 24C1.27599 24 0.860502 23.8279 0.516301 23.4837C0.1721 23.1395 0 22.724 0 22.2372L0 3.52552Z" id="Rectángulo" fill="#CB3837" fill-rule="evenodd" stroke="none" />
    <path d="M5.11201 19.17L12.0397 19.17L12.0485 8.79618L15.5035 8.79618L15.4947 19.1788L18.9585 19.1788L18.9673 5.34117L5.12964 5.32354L5.11201 19.17L5.11201 19.17Z" id="Polígono" fill="#FFFFFF" fill-rule="evenodd" stroke="none" />
  </g>
</svg>