<svg width="24" height="24" viewBox="0 0 32 32" version="1.1"
  xmlns:xlink="http://www.w3.org/1999/xlink"
  xmlns="http://www.w3.org/2000/svg">
  <path d="M16 0C7.16016 0 0 7.34106 0 16.4048C0 23.6638 4.58008 29.7949 10.9399 31.9688C11.7402 32.1123 12.04 31.6201 12.04 31.1895C12.04 30.7998 12.02 29.5081 12.02 28.134C8 28.8928 6.95996 27.1292 6.64014 26.2065C6.45996 25.7349 5.68018 24.2791 5 23.8894C4.43994 23.5818 3.64014 22.823 4.97998 22.8025C6.24023 22.782 7.14014 23.9919 7.43994 24.4841C8.87988 26.9653 11.1802 26.2681 12.1001 25.8374C12.2402 24.771 12.6602 24.0535 13.1201 23.6433C9.56006 23.2332 5.83984 21.8184 5.83984 15.5435C5.83984 13.7595 6.45996 12.283 7.47998 11.1348C7.31982 10.7246 6.75977 9.04321 7.64014 6.78735C7.64014 6.78735 8.97998 6.35693 12.04 8.46899C13.3198 8.09985 14.6802 7.91528 16.04 7.91528C17.3999 7.91528 18.7598 8.09985 20.04 8.46899C23.1001 6.33643 24.4399 6.78735 24.4399 6.78735C25.3198 9.04321 24.7598 10.7246 24.6001 11.1348C25.6201 12.283 26.2402 13.739 26.2402 15.5435C26.2402 21.8389 22.5 23.2332 18.9399 23.6433C19.52 24.156 20.02 25.1401 20.02 26.6782C20.02 28.8723 20 30.6357 20 31.1895C20 31.6201 20.2998 32.1328 21.1001 31.9688C27.6128 29.7144 31.998 23.4526 32 16.4048C32 7.34106 24.8398 0 16 0L16 0Z" id="Forma" fill="#539BF5" fill-rule="evenodd" stroke="none" />
</svg>