<svg width="24px" height="24px" viewBox="0 0 24 24" version="1.1"
  xmlns:xlink="http://www.w3.org/1999/xlink"
  xmlns="http://www.w3.org/2000/svg">
  <defs>
    <path d="M0 0L24 0L24 24L0 24L0 0Z" id="path_1" />
    <clipPath id="mask_1">
      <use xlink:href="#path_1" />
    </clipPath>
  </defs>
  <g id="Grupo-2">
    <path d="M0 0L24 0L24 24L0 24L0 0Z" id="Fondo" fill="#FFFFFF" fill-opacity="0" fill-rule="evenodd" stroke="none" />
    <g clip-path="url(#mask_1)">
      <g id="Grupo" transform="translate(0 5.463911)">
        <path d="M7.31868 8.68008C8.52036 8.68008 9.4945 7.70593 9.4945 6.50425C9.4945 5.30258 8.52036 4.32843 7.31868 4.32843C6.11701 4.32843 5.14286 5.30258 5.14286 6.50425C5.14286 7.70593 6.11701 8.68008 7.31868 8.68008L7.31868 8.68008ZM2.17582 13.0317C3.3775 13.0317 4.35165 12.0576 4.35165 10.8559C4.35165 9.65423 3.3775 8.68008 2.17582 8.68008C0.97415 8.68008 0 9.65423 0 10.8559C0 12.0576 0.97415 13.0317 2.17582 13.0317L2.17582 13.0317ZM21.8242 13.0317C23.0259 13.0317 24 12.0576 24 10.8559C24 9.65423 23.0259 8.68008 21.8242 8.68008C20.6225 8.68008 19.6484 9.65423 19.6484 10.8559C19.6484 12.0576 20.6225 13.0317 21.8242 13.0317L21.8242 13.0317Z" id="Forma" fill="#000000" fill-rule="evenodd" stroke="none" />
        <path d="M14.678 6.59595C14.6084 5.86901 14.573 5.26397 14.0161 4.83873C13.3109 4.30019 12.512 4.64963 11.5279 4.29443C10.561 4.06051 9.84375 3.20199 9.84375 2.1787C9.84375 0.975436 10.8354 0 12.0587 0C12.9647 0 13.7437 0.535076 14.0868 1.30149C14.612 2.29895 14.2707 3.31407 14.9305 3.82539C15.7117 4.43083 16.765 3.98746 17.9402 4.5611C18.3178 4.73463 18.6375 5.00985 18.8627 5.35096C19.0879 5.69207 19.2188 6.09905 19.2188 6.53609C19.2188 7.55938 18.5015 8.41791 17.5346 8.65183C16.5505 9.00702 15.7516 8.65758 15.0464 9.19613C14.2533 9.80172 14.6779 10.8149 14.0315 11.8851C13.6646 12.5898 12.9189 13.0722 12.0587 13.0722C10.8354 13.0722 9.84375 12.0967 9.84375 10.8935C9.84375 10.0194 10.3671 9.26555 11.1223 8.91849C12.2975 8.34485 13.3508 8.78822 14.132 8.18278C14.5827 7.83351 14.678 7.29471 14.678 6.59595L14.678 6.59595Z" id="Forma" fill="#D0021B" stroke="none" />
      </g>
    </g>
  </g>
</svg>