<svg width="24px" height="24px" viewBox="0 0 24 24" version="1.1"
  xmlns:xlink="http://www.w3.org/1999/xlink"
  xmlns="http://www.w3.org/2000/svg">
  <defs>
    <path d="M0 0L24 0L24 24L0 24L0 0Z" id="path_1" />
    <clipPath id="mask_1">
      <use xlink:href="#path_1" />
    </clipPath>
  </defs>
  <g id="Grupo-2">
    <path d="M0 0L24 0L24 24L0 24L0 0Z" id="Fondo" fill="#FFFFFF" fill-opacity="0" fill-rule="evenodd" stroke="none" />
    <g clip-path="url(#mask_1)">
      <g id="Grupo" transform="translate(2.368164 0)">
        <path d="M0.744335 22.1152L0.000864112 2.30507C-0.0236898 1.65082 0.477967 1.09635 1.1314 1.05551L17.9813 0.00239082C18.6464 -0.0391792 19.2193 0.466308 19.2609 1.13143C19.2625 1.15649 19.2632 1.18159 19.2632 1.2067L19.2632 22.7933C19.2632 23.4598 18.723 24 18.0566 24C18.0385 24 18.0205 23.9996 18.0024 23.9988L1.896 23.2754C1.26872 23.2472 0.767884 22.7427 0.744335 22.1152L0.744335 22.1152L0.744335 22.1152Z" id="path-1" fill="#FF4785" fill-rule="evenodd" stroke="none" />
        <path d="M14.2243 2.94998L14.3394 0.181814L16.6534 0L16.7531 2.85472C16.7566 2.95407 16.6789 3.03742 16.5795 3.04089C16.537 3.04237 16.4953 3.02874 16.4619 3.00239L15.5695 2.29943L14.513 3.10087C14.4338 3.16095 14.3209 3.14545 14.2608 3.06624C14.2355 3.0329 14.2226 2.99179 14.2243 2.94998L14.2243 2.94998L14.2243 2.94998Z" id="path2_fill-path" fill="#FFFFFF" stroke="none" />
        <path d="M11.2652 9.04588C11.2652 9.51534 14.4274 9.29034 14.8519 8.96058C14.8519 5.76367 13.1365 4.08374 9.99534 4.08374C6.85418 4.08374 5.09424 5.78981 5.09424 8.3489C5.09424 12.806 11.1092 12.8913 11.1092 15.3224C11.1092 16.0048 10.7751 16.41 10.0399 16.41C9.08196 16.41 8.70323 15.9208 8.74779 14.2574C8.74779 13.8965 5.09424 13.784 4.98285 14.2574C4.69921 18.2884 7.21062 19.4511 10.0845 19.4511C12.8692 19.4511 15.0524 17.9668 15.0524 15.2798C15.0524 10.5028 8.94829 10.6307 8.94829 8.2636C8.94829 7.30394 9.66118 7.17598 10.0845 7.17598C10.53 7.17598 11.332 7.25452 11.2652 9.04588L11.2652 9.04588L11.2652 9.04588Z" id="path9_fill-path" fill="#FFFFFF" stroke="none" />
      </g>
    </g>
  </g>
</svg>