<svg width="24px" height="24px" viewBox="0 0 24 15" version="1.1"
  xmlnsXlink="http://www.w3.org/1999/xlink"
  xmlns="http://www.w3.org/2000/svg">
  <g id="Group-7">
    <path d="M12.0002 0C8.79995 0 6.8003 1.5905 5.99988 4.7715C7.20004 3.181 8.60008 2.58468 10.2 2.98207C11.1128 3.20875 11.7656 3.86714 12.4874 4.59608C13.6641 5.78308 15.026 7.15678 18.0001 7.15678C21.1999 7.15678 23.2 5.56628 24 2.38575C22.8003 3.97625 21.4003 4.57257 19.8004 4.17471C18.8871 3.94803 18.2343 3.28964 17.5124 2.56117C16.3358 1.37323 14.9743 0 12.0002 0L12.0002 0ZM5.99988 7.15677C2.80007 7.15677 0.799953 8.74727 0 11.9283C1.20016 10.3378 2.6002 9.74145 4.19964 10.1388C5.11293 10.3655 5.76568 11.0239 6.48757 11.7529C7.66422 12.9398 9.02569 14.3135 12.0002 14.3135C15.2 14.3135 17.2002 12.7235 18.0001 9.54252C16.8 11.133 15.3999 11.7293 13.8 11.3319C12.8872 11.1048 12.2344 10.4464 11.5126 9.71794C10.3359 8.53094 8.97396 7.15677 5.99988 7.15677L5.99988 7.15677Z" id="Shape" fill="#38BDF8" fillRule="evenodd" stroke="none" />
  </g>
</svg>