<svg width="34px" height="34px" viewBox="0 0 34 34" version="1.1"
  xmlns:xlink="http://www.w3.org/1999/xlink"
  xmlns="http://www.w3.org/2000/svg">
  <defs>
    <path d="M0 0L18 0L18 15.6L0 15.6L0 0Z" id="path_1" />
    <clipPath id="mask_1">
      <use xlink:href="#path_1" />
    </clipPath>
  </defs>
  <g id="Grupo">
    <path d="M0 17C0 7.61116 7.61116 0 17 0C26.3888 0 34 7.61116 34 17C34 26.3888 26.3888 34 17 34C7.61116 34 0 26.3888 0 17Z" id="Óvalo" fill="#000000" fill-rule="evenodd" stroke="none" />
    <g id="pnpm-no-name-with-frame" transform="translate(8 7.3999023)">
      <path d="M0 0L18 0L18 15.6L0 15.6L0 0Z" id="Fondo" fill="none" fill-rule="evenodd" stroke="none" />
      <path d="M9.0216 0.06L17.8896 15.42L0.1536 15.42L9.0216 0.06L9.0216 0.06Z" id="Forma" fill="#DDDDDD" stroke="none" />
    </g>
  </g>
</svg>