<svg width="24px" height="24px" viewBox="0 0 256 256" version="1.1"
  xmlns:xlink="http://www.w3.org/1999/xlink"
  xmlns="http://www.w3.org/2000/svg">
  <defs>
    <path d="M0 0L256 0L256 256L0 256L0 0Z" id="path_1" />
    <clipPath id="mask_1">
      <use xlink:href="#path_1" />
    </clipPath>
  </defs>
  <g id="Grupo-2">
    <path d="M0 0L256 0L256 256L0 256L0 0Z" id="Fondo" fill="#FFFFFF" fill-opacity="0" fill-rule="evenodd" stroke="none" />
    <g clip-path="url(#mask_1)">
      <g id="Grupo" transform="translate(0 11.231445)">
        <path d="M192.115 70.8084L130.915 159.296C130.266 160.235 129.327 160.937 128.242 161.298C127.156 161.659 125.983 161.655 124.9 161.293C123.816 160.929 122.882 160.223 122.239 159.283C121.596 158.341 121.279 157.217 121.336 156.08L123.785 107.226L84.2433 98.8398C83.3982 98.6608 82.6109 98.2769 81.9509 97.7222C81.2909 97.1678 80.7787 96.4596 80.4596 95.6604C80.1405 94.8612 80.0245 93.9958 80.1217 93.1408C80.2189 92.2859 80.5263 91.4675 81.0168 90.7585L142.218 2.27035C142.867 1.33163 143.805 0.628983 144.891 0.26877C145.977 -0.0914432 147.15 -0.0895804 148.234 0.274358C149.317 0.638128 150.251 1.34399 150.894 2.28491C151.537 3.22567 151.854 4.35 151.797 5.48737L149.348 54.3424L188.889 62.7277C189.734 62.9067 190.522 63.2906 191.182 63.8451C191.843 64.3997 192.354 65.108 192.672 65.9072C192.993 66.7063 193.108 67.5717 193.011 68.4266C192.915 69.2817 192.606 70.1 192.115 70.8091L192.115 70.8084L192.115 70.8084Z" id="Forma" fill="#FCC72B" stroke="none" />
        <path d="M128.025 233.537C126.397 233.539 124.785 233.22 123.281 232.597C121.777 231.974 120.411 231.059 119.262 229.908L61.434 172.084C59.1206 169.759 57.8239 166.611 57.8281 163.33C57.8325 160.05 59.1376 156.903 61.4574 154.585C63.777 152.265 66.922 150.959 70.2026 150.954C73.4833 150.951 76.6319 152.246 78.9579 154.559L128.025 203.621L234.917 96.7333C237.248 94.4406 240.389 93.1616 243.658 93.1749C246.928 93.1882 250.059 94.4927 252.369 96.8042C254.681 99.1159 255.987 102.247 256 105.516C256.012 108.785 254.733 111.927 252.44 114.257L136.786 229.908C135.636 231.061 134.271 231.974 132.767 232.597C131.264 233.22 129.652 233.539 128.025 233.537L128.025 233.537Z" id="Forma" fill="#729B1B" stroke="none" />
        <path d="M127.975 233.537C129.603 233.539 131.215 233.22 132.719 232.597C134.222 231.974 135.588 231.059 136.738 229.908L194.566 172.084C196.879 169.759 198.176 166.611 198.171 163.33C198.168 160.05 196.862 156.903 194.542 154.585C192.222 152.265 189.077 150.959 185.797 150.954C182.516 150.951 179.368 152.246 177.041 154.559L127.975 203.621L21.0823 96.7333C18.752 94.4406 15.6102 93.1616 12.3414 93.1749C9.07234 93.1882 5.94101 94.4927 3.62953 96.8042C1.318 99.1159 0.0135153 102.247 0.000101297 105.516C-0.0131069 108.785 1.26584 111.927 3.55847 114.257L119.214 229.908C120.363 231.061 121.729 231.974 123.232 232.597C124.736 233.22 126.348 233.539 127.975 233.537L127.975 233.537Z" id="Forma" fill="#729B1B" fill-opacity="0.5019608" stroke="none" />
      </g>
    </g>
  </g>
</svg>